G75*
G70*
%OFA0B0*%
%FSLAX24Y24*%
%IPPOS*%
%LPD*%
%AMOC8*
5,1,8,0,0,1.08239X$1,22.5*
%
%ADD10C,0.0039*%
D10*
X000635Y000500D02*
X000635Y001531D01*
X001061Y001531D01*
X001061Y001433D01*
X000734Y001433D01*
X000734Y000598D01*
X001569Y000598D01*
X001569Y001433D01*
X001242Y001433D01*
X001242Y001531D01*
X001667Y001531D01*
X001667Y000500D01*
X000635Y000500D01*
X000635Y000530D02*
X001667Y000530D01*
X001667Y000568D02*
X000635Y000568D01*
X000635Y000606D02*
X000734Y000606D01*
X000734Y000644D02*
X000635Y000644D01*
X000635Y000682D02*
X000734Y000682D01*
X000734Y000720D02*
X000635Y000720D01*
X000635Y000758D02*
X000734Y000758D01*
X000734Y000795D02*
X000635Y000795D01*
X000635Y000833D02*
X000734Y000833D01*
X000734Y000871D02*
X000635Y000871D01*
X000635Y000909D02*
X000734Y000909D01*
X000734Y000947D02*
X000635Y000947D01*
X000635Y000985D02*
X000734Y000985D01*
X000734Y001023D02*
X000635Y001023D01*
X000635Y001061D02*
X000734Y001061D01*
X000734Y001098D02*
X000635Y001098D01*
X000635Y001136D02*
X000734Y001136D01*
X000734Y001174D02*
X000635Y001174D01*
X000635Y001212D02*
X000734Y001212D01*
X000734Y001250D02*
X000635Y001250D01*
X000635Y001288D02*
X000734Y001288D01*
X000734Y001326D02*
X000635Y001326D01*
X000635Y001364D02*
X000734Y001364D01*
X000734Y001401D02*
X000635Y001401D01*
X000635Y001439D02*
X001061Y001439D01*
X001061Y001477D02*
X000635Y001477D01*
X000635Y001515D02*
X001061Y001515D01*
X001242Y001515D02*
X001667Y001515D01*
X001667Y001477D02*
X001242Y001477D01*
X001242Y001439D02*
X001667Y001439D01*
X001667Y001401D02*
X001569Y001401D01*
X001569Y001364D02*
X001667Y001364D01*
X001667Y001326D02*
X001569Y001326D01*
X001569Y001288D02*
X001667Y001288D01*
X001667Y001250D02*
X001569Y001250D01*
X001569Y001212D02*
X001667Y001212D01*
X001667Y001174D02*
X001569Y001174D01*
X001569Y001136D02*
X001667Y001136D01*
X001667Y001098D02*
X001569Y001098D01*
X001569Y001061D02*
X001667Y001061D01*
X001667Y001023D02*
X001569Y001023D01*
X001569Y000985D02*
X001667Y000985D01*
X001667Y000947D02*
X001569Y000947D01*
X001569Y000909D02*
X001667Y000909D01*
X001667Y000871D02*
X001569Y000871D01*
X001569Y000833D02*
X001667Y000833D01*
X001667Y000795D02*
X001569Y000795D01*
X001569Y000758D02*
X001667Y000758D01*
X001667Y000720D02*
X001569Y000720D01*
X001569Y000682D02*
X001667Y000682D01*
X001667Y000644D02*
X001569Y000644D01*
X001569Y000606D02*
X001667Y000606D01*
X001474Y000697D02*
X001242Y000697D01*
X001242Y000795D01*
X001376Y000795D01*
X001376Y001236D01*
X000931Y001236D01*
X000931Y000795D01*
X001065Y000795D01*
X001065Y000697D01*
X000832Y000697D01*
X000832Y001335D01*
X001474Y001335D01*
X001474Y000697D01*
X001474Y000720D02*
X001242Y000720D01*
X001242Y000758D02*
X001474Y000758D01*
X001474Y000795D02*
X001376Y000795D01*
X001376Y000833D02*
X001474Y000833D01*
X001474Y000871D02*
X001376Y000871D01*
X001376Y000909D02*
X001474Y000909D01*
X001474Y000947D02*
X001376Y000947D01*
X001376Y000985D02*
X001474Y000985D01*
X001474Y001023D02*
X001376Y001023D01*
X001376Y001061D02*
X001474Y001061D01*
X001474Y001098D02*
X001376Y001098D01*
X001376Y001136D02*
X001474Y001136D01*
X001474Y001174D02*
X001376Y001174D01*
X001376Y001212D02*
X001474Y001212D01*
X001474Y001250D02*
X000832Y001250D01*
X000832Y001288D02*
X001474Y001288D01*
X001474Y001326D02*
X000832Y001326D01*
X000832Y001212D02*
X000931Y001212D01*
X000931Y001174D02*
X000832Y001174D01*
X000832Y001136D02*
X000931Y001136D01*
X000931Y001098D02*
X000832Y001098D01*
X000832Y001061D02*
X000931Y001061D01*
X000931Y001023D02*
X000832Y001023D01*
X000832Y000985D02*
X000931Y000985D01*
X000931Y000947D02*
X000832Y000947D01*
X000832Y000909D02*
X000931Y000909D01*
X000931Y000871D02*
X000832Y000871D01*
X000832Y000833D02*
X000931Y000833D01*
X000931Y000795D02*
X000832Y000795D01*
X000832Y000758D02*
X001065Y000758D01*
X001065Y000720D02*
X000832Y000720D01*
X003391Y000720D02*
X003490Y000720D01*
X003490Y000758D02*
X003391Y000758D01*
X003391Y000795D02*
X003490Y000795D01*
X003490Y000833D02*
X003391Y000833D01*
X003391Y000871D02*
X003490Y000871D01*
X003490Y000909D02*
X003391Y000909D01*
X003391Y000947D02*
X003490Y000947D01*
X003490Y000985D02*
X003391Y000985D01*
X003391Y001023D02*
X003490Y001023D01*
X003490Y001061D02*
X003391Y001061D01*
X003391Y001098D02*
X003490Y001098D01*
X003490Y001136D02*
X003391Y001136D01*
X003391Y001174D02*
X003490Y001174D01*
X003490Y001212D02*
X003391Y001212D01*
X003391Y001250D02*
X003490Y001250D01*
X003490Y001288D02*
X003391Y001288D01*
X003391Y001326D02*
X003490Y001326D01*
X003490Y001364D02*
X003391Y001364D01*
X003391Y001401D02*
X003490Y001401D01*
X003490Y001433D02*
X003817Y001433D01*
X003817Y001531D01*
X003391Y001531D01*
X003391Y000500D01*
X004423Y000500D01*
X004423Y001531D01*
X003998Y001531D01*
X003998Y001433D01*
X004324Y001433D01*
X004324Y000598D01*
X003490Y000598D01*
X003490Y001433D01*
X003391Y001439D02*
X003817Y001439D01*
X003817Y001477D02*
X003391Y001477D01*
X003391Y001515D02*
X003817Y001515D01*
X003998Y001515D02*
X004423Y001515D01*
X004423Y001477D02*
X003998Y001477D01*
X003998Y001439D02*
X004423Y001439D01*
X004423Y001401D02*
X004324Y001401D01*
X004324Y001364D02*
X004423Y001364D01*
X004423Y001326D02*
X004324Y001326D01*
X004324Y001288D02*
X004423Y001288D01*
X004423Y001250D02*
X004324Y001250D01*
X004324Y001212D02*
X004423Y001212D01*
X004423Y001174D02*
X004324Y001174D01*
X004324Y001136D02*
X004423Y001136D01*
X004423Y001098D02*
X004324Y001098D01*
X004324Y001061D02*
X004423Y001061D01*
X004423Y001023D02*
X004324Y001023D01*
X004324Y000985D02*
X004423Y000985D01*
X004423Y000947D02*
X004324Y000947D01*
X004324Y000909D02*
X004423Y000909D01*
X004423Y000871D02*
X004324Y000871D01*
X004324Y000833D02*
X004423Y000833D01*
X004423Y000795D02*
X004324Y000795D01*
X004324Y000758D02*
X004423Y000758D01*
X004423Y000720D02*
X004324Y000720D01*
X004324Y000682D02*
X004423Y000682D01*
X004423Y000644D02*
X004324Y000644D01*
X004324Y000606D02*
X004423Y000606D01*
X004423Y000568D02*
X003391Y000568D01*
X003391Y000530D02*
X004423Y000530D01*
X004230Y000697D02*
X004002Y000697D01*
X004002Y000795D01*
X004131Y000795D01*
X004131Y001236D01*
X003687Y001236D01*
X003687Y000795D01*
X003820Y000795D01*
X003820Y000697D01*
X003588Y000697D01*
X003588Y001335D01*
X004230Y001335D01*
X004230Y000697D01*
X004230Y000720D02*
X004002Y000720D01*
X004002Y000758D02*
X004230Y000758D01*
X004230Y000795D02*
X004131Y000795D01*
X004131Y000833D02*
X004230Y000833D01*
X004230Y000871D02*
X004131Y000871D01*
X004131Y000909D02*
X004230Y000909D01*
X004230Y000947D02*
X004131Y000947D01*
X004131Y000985D02*
X004230Y000985D01*
X004230Y001023D02*
X004131Y001023D01*
X004131Y001061D02*
X004230Y001061D01*
X004230Y001098D02*
X004131Y001098D01*
X004131Y001136D02*
X004230Y001136D01*
X004230Y001174D02*
X004131Y001174D01*
X004131Y001212D02*
X004230Y001212D01*
X004230Y001250D02*
X003588Y001250D01*
X003588Y001288D02*
X004230Y001288D01*
X004230Y001326D02*
X003588Y001326D01*
X003588Y001212D02*
X003687Y001212D01*
X003687Y001174D02*
X003588Y001174D01*
X003588Y001136D02*
X003687Y001136D01*
X003687Y001098D02*
X003588Y001098D01*
X003588Y001061D02*
X003687Y001061D01*
X003687Y001023D02*
X003588Y001023D01*
X003588Y000985D02*
X003687Y000985D01*
X003687Y000947D02*
X003588Y000947D01*
X003588Y000909D02*
X003687Y000909D01*
X003687Y000871D02*
X003588Y000871D01*
X003588Y000833D02*
X003687Y000833D01*
X003687Y000795D02*
X003588Y000795D01*
X003588Y000758D02*
X003820Y000758D01*
X003820Y000720D02*
X003588Y000720D01*
X003490Y000682D02*
X003391Y000682D01*
X003391Y000644D02*
X003490Y000644D01*
X003490Y000606D02*
X003391Y000606D01*
X006143Y000606D02*
X006242Y000606D01*
X006242Y000598D02*
X006242Y001433D01*
X006569Y001433D01*
X006569Y001531D01*
X006143Y001531D01*
X006143Y000500D01*
X007175Y000500D01*
X007175Y001531D01*
X006750Y001531D01*
X006750Y001433D01*
X007076Y001433D01*
X007076Y000598D01*
X006242Y000598D01*
X006242Y000644D02*
X006143Y000644D01*
X006143Y000682D02*
X006242Y000682D01*
X006242Y000720D02*
X006143Y000720D01*
X006143Y000758D02*
X006242Y000758D01*
X006242Y000795D02*
X006143Y000795D01*
X006143Y000833D02*
X006242Y000833D01*
X006242Y000871D02*
X006143Y000871D01*
X006143Y000909D02*
X006242Y000909D01*
X006242Y000947D02*
X006143Y000947D01*
X006143Y000985D02*
X006242Y000985D01*
X006242Y001023D02*
X006143Y001023D01*
X006143Y001061D02*
X006242Y001061D01*
X006242Y001098D02*
X006143Y001098D01*
X006143Y001136D02*
X006242Y001136D01*
X006242Y001174D02*
X006143Y001174D01*
X006143Y001212D02*
X006242Y001212D01*
X006242Y001250D02*
X006143Y001250D01*
X006143Y001288D02*
X006242Y001288D01*
X006242Y001326D02*
X006143Y001326D01*
X006143Y001364D02*
X006242Y001364D01*
X006242Y001401D02*
X006143Y001401D01*
X006143Y001439D02*
X006569Y001439D01*
X006569Y001477D02*
X006143Y001477D01*
X006143Y001515D02*
X006569Y001515D01*
X006750Y001515D02*
X007175Y001515D01*
X007175Y001477D02*
X006750Y001477D01*
X006750Y001439D02*
X007175Y001439D01*
X007175Y001401D02*
X007076Y001401D01*
X007076Y001364D02*
X007175Y001364D01*
X007175Y001326D02*
X007076Y001326D01*
X007076Y001288D02*
X007175Y001288D01*
X007175Y001250D02*
X007076Y001250D01*
X007076Y001212D02*
X007175Y001212D01*
X007175Y001174D02*
X007076Y001174D01*
X007076Y001136D02*
X007175Y001136D01*
X007175Y001098D02*
X007076Y001098D01*
X007076Y001061D02*
X007175Y001061D01*
X007175Y001023D02*
X007076Y001023D01*
X007076Y000985D02*
X007175Y000985D01*
X007175Y000947D02*
X007076Y000947D01*
X007076Y000909D02*
X007175Y000909D01*
X007175Y000871D02*
X007076Y000871D01*
X007076Y000833D02*
X007175Y000833D01*
X007175Y000795D02*
X007076Y000795D01*
X007076Y000758D02*
X007175Y000758D01*
X007175Y000720D02*
X007076Y000720D01*
X007076Y000682D02*
X007175Y000682D01*
X007175Y000644D02*
X007076Y000644D01*
X007076Y000606D02*
X007175Y000606D01*
X007175Y000568D02*
X006143Y000568D01*
X006143Y000530D02*
X007175Y000530D01*
X006982Y000697D02*
X006750Y000697D01*
X006750Y000795D01*
X006883Y000795D01*
X006883Y001236D01*
X006439Y001236D01*
X006439Y000795D01*
X006572Y000795D01*
X006572Y000697D01*
X006340Y000697D01*
X006340Y001335D01*
X006982Y001335D01*
X006982Y000697D01*
X006982Y000720D02*
X006750Y000720D01*
X006750Y000758D02*
X006982Y000758D01*
X006982Y000795D02*
X006883Y000795D01*
X006883Y000833D02*
X006982Y000833D01*
X006982Y000871D02*
X006883Y000871D01*
X006883Y000909D02*
X006982Y000909D01*
X006982Y000947D02*
X006883Y000947D01*
X006883Y000985D02*
X006982Y000985D01*
X006982Y001023D02*
X006883Y001023D01*
X006883Y001061D02*
X006982Y001061D01*
X006982Y001098D02*
X006883Y001098D01*
X006883Y001136D02*
X006982Y001136D01*
X006982Y001174D02*
X006883Y001174D01*
X006883Y001212D02*
X006982Y001212D01*
X006982Y001250D02*
X006340Y001250D01*
X006340Y001288D02*
X006982Y001288D01*
X006982Y001326D02*
X006340Y001326D01*
X006340Y001212D02*
X006439Y001212D01*
X006439Y001174D02*
X006340Y001174D01*
X006340Y001136D02*
X006439Y001136D01*
X006439Y001098D02*
X006340Y001098D01*
X006340Y001061D02*
X006439Y001061D01*
X006439Y001023D02*
X006340Y001023D01*
X006340Y000985D02*
X006439Y000985D01*
X006439Y000947D02*
X006340Y000947D01*
X006340Y000909D02*
X006439Y000909D01*
X006439Y000871D02*
X006340Y000871D01*
X006340Y000833D02*
X006439Y000833D01*
X006439Y000795D02*
X006340Y000795D01*
X006340Y000758D02*
X006572Y000758D01*
X006572Y000720D02*
X006340Y000720D01*
X008903Y000720D02*
X009002Y000720D01*
X009002Y000758D02*
X008903Y000758D01*
X008903Y000795D02*
X009002Y000795D01*
X009002Y000833D02*
X008903Y000833D01*
X008903Y000871D02*
X009002Y000871D01*
X009002Y000909D02*
X008903Y000909D01*
X008903Y000947D02*
X009002Y000947D01*
X009002Y000985D02*
X008903Y000985D01*
X008903Y001023D02*
X009002Y001023D01*
X009002Y001061D02*
X008903Y001061D01*
X008903Y001098D02*
X009002Y001098D01*
X009002Y001136D02*
X008903Y001136D01*
X008903Y001174D02*
X009002Y001174D01*
X009002Y001212D02*
X008903Y001212D01*
X008903Y001250D02*
X009002Y001250D01*
X009002Y001288D02*
X008903Y001288D01*
X008903Y001326D02*
X009002Y001326D01*
X009002Y001364D02*
X008903Y001364D01*
X008903Y001401D02*
X009002Y001401D01*
X009002Y001433D02*
X009328Y001433D01*
X009328Y001531D01*
X008903Y001531D01*
X008903Y000500D01*
X009935Y000500D01*
X009935Y001531D01*
X009509Y001531D01*
X009509Y001433D01*
X009836Y001433D01*
X009836Y000598D01*
X009002Y000598D01*
X009002Y001433D01*
X008903Y001439D02*
X009328Y001439D01*
X009328Y001477D02*
X008903Y001477D01*
X008903Y001515D02*
X009328Y001515D01*
X009509Y001515D02*
X009935Y001515D01*
X009935Y001477D02*
X009509Y001477D01*
X009509Y001439D02*
X009935Y001439D01*
X009935Y001401D02*
X009836Y001401D01*
X009836Y001364D02*
X009935Y001364D01*
X009935Y001326D02*
X009836Y001326D01*
X009836Y001288D02*
X009935Y001288D01*
X009935Y001250D02*
X009836Y001250D01*
X009836Y001212D02*
X009935Y001212D01*
X009935Y001174D02*
X009836Y001174D01*
X009836Y001136D02*
X009935Y001136D01*
X009935Y001098D02*
X009836Y001098D01*
X009836Y001061D02*
X009935Y001061D01*
X009935Y001023D02*
X009836Y001023D01*
X009836Y000985D02*
X009935Y000985D01*
X009935Y000947D02*
X009836Y000947D01*
X009836Y000909D02*
X009935Y000909D01*
X009935Y000871D02*
X009836Y000871D01*
X009836Y000833D02*
X009935Y000833D01*
X009935Y000795D02*
X009836Y000795D01*
X009836Y000758D02*
X009935Y000758D01*
X009935Y000720D02*
X009836Y000720D01*
X009836Y000682D02*
X009935Y000682D01*
X009935Y000644D02*
X009836Y000644D01*
X009836Y000606D02*
X009935Y000606D01*
X009935Y000568D02*
X008903Y000568D01*
X008903Y000530D02*
X009935Y000530D01*
X009002Y000606D02*
X008903Y000606D01*
X008903Y000644D02*
X009002Y000644D01*
X009002Y000682D02*
X008903Y000682D01*
X009100Y000697D02*
X009100Y001335D01*
X009742Y001335D01*
X009742Y000697D01*
X009509Y000697D01*
X009509Y000795D01*
X009643Y000795D01*
X009643Y001236D01*
X009198Y001236D01*
X009198Y000795D01*
X009332Y000795D01*
X009332Y000697D01*
X009100Y000697D01*
X009100Y000720D02*
X009332Y000720D01*
X009332Y000758D02*
X009100Y000758D01*
X009100Y000795D02*
X009198Y000795D01*
X009198Y000833D02*
X009100Y000833D01*
X009100Y000871D02*
X009198Y000871D01*
X009198Y000909D02*
X009100Y000909D01*
X009100Y000947D02*
X009198Y000947D01*
X009198Y000985D02*
X009100Y000985D01*
X009100Y001023D02*
X009198Y001023D01*
X009198Y001061D02*
X009100Y001061D01*
X009100Y001098D02*
X009198Y001098D01*
X009198Y001136D02*
X009100Y001136D01*
X009100Y001174D02*
X009198Y001174D01*
X009198Y001212D02*
X009100Y001212D01*
X009100Y001250D02*
X009742Y001250D01*
X009742Y001288D02*
X009100Y001288D01*
X009100Y001326D02*
X009742Y001326D01*
X009742Y001212D02*
X009643Y001212D01*
X009643Y001174D02*
X009742Y001174D01*
X009742Y001136D02*
X009643Y001136D01*
X009643Y001098D02*
X009742Y001098D01*
X009742Y001061D02*
X009643Y001061D01*
X009643Y001023D02*
X009742Y001023D01*
X009742Y000985D02*
X009643Y000985D01*
X009643Y000947D02*
X009742Y000947D01*
X009742Y000909D02*
X009643Y000909D01*
X009643Y000871D02*
X009742Y000871D01*
X009742Y000833D02*
X009643Y000833D01*
X009643Y000795D02*
X009742Y000795D01*
X009742Y000758D02*
X009509Y000758D01*
X009509Y000720D02*
X009742Y000720D01*
X011659Y000720D02*
X011757Y000720D01*
X011757Y000758D02*
X011659Y000758D01*
X011659Y000795D02*
X011757Y000795D01*
X011757Y000833D02*
X011659Y000833D01*
X011659Y000871D02*
X011757Y000871D01*
X011757Y000909D02*
X011659Y000909D01*
X011659Y000947D02*
X011757Y000947D01*
X011757Y000985D02*
X011659Y000985D01*
X011659Y001023D02*
X011757Y001023D01*
X011757Y001061D02*
X011659Y001061D01*
X011659Y001098D02*
X011757Y001098D01*
X011757Y001136D02*
X011659Y001136D01*
X011659Y001174D02*
X011757Y001174D01*
X011757Y001212D02*
X011659Y001212D01*
X011659Y001250D02*
X011757Y001250D01*
X011757Y001288D02*
X011659Y001288D01*
X011659Y001326D02*
X011757Y001326D01*
X011757Y001364D02*
X011659Y001364D01*
X011659Y001401D02*
X011757Y001401D01*
X011757Y001433D02*
X012084Y001433D01*
X012084Y001531D01*
X011659Y001531D01*
X011659Y000500D01*
X012691Y000500D01*
X012691Y001531D01*
X012265Y001531D01*
X012265Y001433D01*
X012592Y001433D01*
X012592Y000598D01*
X011757Y000598D01*
X011757Y001433D01*
X011659Y001439D02*
X012084Y001439D01*
X012084Y001477D02*
X011659Y001477D01*
X011659Y001515D02*
X012084Y001515D01*
X012265Y001515D02*
X012691Y001515D01*
X012691Y001477D02*
X012265Y001477D01*
X012265Y001439D02*
X012691Y001439D01*
X012691Y001401D02*
X012592Y001401D01*
X012592Y001364D02*
X012691Y001364D01*
X012691Y001326D02*
X012592Y001326D01*
X012592Y001288D02*
X012691Y001288D01*
X012691Y001250D02*
X012592Y001250D01*
X012592Y001212D02*
X012691Y001212D01*
X012691Y001174D02*
X012592Y001174D01*
X012592Y001136D02*
X012691Y001136D01*
X012691Y001098D02*
X012592Y001098D01*
X012592Y001061D02*
X012691Y001061D01*
X012691Y001023D02*
X012592Y001023D01*
X012592Y000985D02*
X012691Y000985D01*
X012691Y000947D02*
X012592Y000947D01*
X012592Y000909D02*
X012691Y000909D01*
X012691Y000871D02*
X012592Y000871D01*
X012592Y000833D02*
X012691Y000833D01*
X012691Y000795D02*
X012592Y000795D01*
X012592Y000758D02*
X012691Y000758D01*
X012691Y000720D02*
X012592Y000720D01*
X012592Y000682D02*
X012691Y000682D01*
X012691Y000644D02*
X012592Y000644D01*
X012592Y000606D02*
X012691Y000606D01*
X012691Y000568D02*
X011659Y000568D01*
X011659Y000530D02*
X012691Y000530D01*
X011757Y000606D02*
X011659Y000606D01*
X011659Y000644D02*
X011757Y000644D01*
X011757Y000682D02*
X011659Y000682D01*
X011856Y000697D02*
X011856Y001335D01*
X012498Y001335D01*
X012498Y000697D01*
X012265Y000697D01*
X012265Y000795D01*
X012399Y000795D01*
X012399Y001236D01*
X011954Y001236D01*
X011954Y000795D01*
X012088Y000795D01*
X012088Y000697D01*
X011856Y000697D01*
X011856Y000720D02*
X012088Y000720D01*
X012088Y000758D02*
X011856Y000758D01*
X011856Y000795D02*
X011954Y000795D01*
X011954Y000833D02*
X011856Y000833D01*
X011856Y000871D02*
X011954Y000871D01*
X011954Y000909D02*
X011856Y000909D01*
X011856Y000947D02*
X011954Y000947D01*
X011954Y000985D02*
X011856Y000985D01*
X011856Y001023D02*
X011954Y001023D01*
X011954Y001061D02*
X011856Y001061D01*
X011856Y001098D02*
X011954Y001098D01*
X011954Y001136D02*
X011856Y001136D01*
X011856Y001174D02*
X011954Y001174D01*
X011954Y001212D02*
X011856Y001212D01*
X011856Y001250D02*
X012498Y001250D01*
X012498Y001288D02*
X011856Y001288D01*
X011856Y001326D02*
X012498Y001326D01*
X012498Y001212D02*
X012399Y001212D01*
X012399Y001174D02*
X012498Y001174D01*
X012498Y001136D02*
X012399Y001136D01*
X012399Y001098D02*
X012498Y001098D01*
X012498Y001061D02*
X012399Y001061D01*
X012399Y001023D02*
X012498Y001023D01*
X012498Y000985D02*
X012399Y000985D01*
X012399Y000947D02*
X012498Y000947D01*
X012498Y000909D02*
X012399Y000909D01*
X012399Y000871D02*
X012498Y000871D01*
X012498Y000833D02*
X012399Y000833D01*
X012399Y000795D02*
X012498Y000795D01*
X012498Y000758D02*
X012265Y000758D01*
X012265Y000720D02*
X012498Y000720D01*
X014415Y000720D02*
X014513Y000720D01*
X014513Y000758D02*
X014415Y000758D01*
X014415Y000795D02*
X014513Y000795D01*
X014513Y000833D02*
X014415Y000833D01*
X014415Y000871D02*
X014513Y000871D01*
X014513Y000909D02*
X014415Y000909D01*
X014415Y000947D02*
X014513Y000947D01*
X014513Y000985D02*
X014415Y000985D01*
X014415Y001023D02*
X014513Y001023D01*
X014513Y001061D02*
X014415Y001061D01*
X014415Y001098D02*
X014513Y001098D01*
X014513Y001136D02*
X014415Y001136D01*
X014415Y001174D02*
X014513Y001174D01*
X014513Y001212D02*
X014415Y001212D01*
X014415Y001250D02*
X014513Y001250D01*
X014513Y001288D02*
X014415Y001288D01*
X014415Y001326D02*
X014513Y001326D01*
X014513Y001364D02*
X014415Y001364D01*
X014415Y001401D02*
X014513Y001401D01*
X014513Y001433D02*
X014840Y001433D01*
X014840Y001531D01*
X014415Y001531D01*
X014415Y000500D01*
X015446Y000500D01*
X015446Y001531D01*
X015021Y001531D01*
X015021Y001433D01*
X015348Y001433D01*
X015348Y000598D01*
X014513Y000598D01*
X014513Y001433D01*
X014415Y001439D02*
X014840Y001439D01*
X014840Y001477D02*
X014415Y001477D01*
X014415Y001515D02*
X014840Y001515D01*
X015021Y001515D02*
X015446Y001515D01*
X015446Y001477D02*
X015021Y001477D01*
X015021Y001439D02*
X015446Y001439D01*
X015446Y001401D02*
X015348Y001401D01*
X015348Y001364D02*
X015446Y001364D01*
X015446Y001326D02*
X015348Y001326D01*
X015348Y001288D02*
X015446Y001288D01*
X015446Y001250D02*
X015348Y001250D01*
X015348Y001212D02*
X015446Y001212D01*
X015446Y001174D02*
X015348Y001174D01*
X015348Y001136D02*
X015446Y001136D01*
X015446Y001098D02*
X015348Y001098D01*
X015348Y001061D02*
X015446Y001061D01*
X015446Y001023D02*
X015348Y001023D01*
X015348Y000985D02*
X015446Y000985D01*
X015446Y000947D02*
X015348Y000947D01*
X015348Y000909D02*
X015446Y000909D01*
X015446Y000871D02*
X015348Y000871D01*
X015348Y000833D02*
X015446Y000833D01*
X015446Y000795D02*
X015348Y000795D01*
X015348Y000758D02*
X015446Y000758D01*
X015446Y000720D02*
X015348Y000720D01*
X015348Y000682D02*
X015446Y000682D01*
X015446Y000644D02*
X015348Y000644D01*
X015348Y000606D02*
X015446Y000606D01*
X015446Y000568D02*
X014415Y000568D01*
X014415Y000530D02*
X015446Y000530D01*
X015254Y000697D02*
X015021Y000697D01*
X015021Y000795D01*
X015155Y000795D01*
X015155Y001236D01*
X014710Y001236D01*
X014710Y000795D01*
X014844Y000795D01*
X014844Y000697D01*
X014612Y000697D01*
X014612Y001335D01*
X015254Y001335D01*
X015254Y000697D01*
X015254Y000720D02*
X015021Y000720D01*
X015021Y000758D02*
X015254Y000758D01*
X015254Y000795D02*
X015155Y000795D01*
X015155Y000833D02*
X015254Y000833D01*
X015254Y000871D02*
X015155Y000871D01*
X015155Y000909D02*
X015254Y000909D01*
X015254Y000947D02*
X015155Y000947D01*
X015155Y000985D02*
X015254Y000985D01*
X015254Y001023D02*
X015155Y001023D01*
X015155Y001061D02*
X015254Y001061D01*
X015254Y001098D02*
X015155Y001098D01*
X015155Y001136D02*
X015254Y001136D01*
X015254Y001174D02*
X015155Y001174D01*
X015155Y001212D02*
X015254Y001212D01*
X015254Y001250D02*
X014612Y001250D01*
X014612Y001288D02*
X015254Y001288D01*
X015254Y001326D02*
X014612Y001326D01*
X014612Y001212D02*
X014710Y001212D01*
X014710Y001174D02*
X014612Y001174D01*
X014612Y001136D02*
X014710Y001136D01*
X014710Y001098D02*
X014612Y001098D01*
X014612Y001061D02*
X014710Y001061D01*
X014710Y001023D02*
X014612Y001023D01*
X014612Y000985D02*
X014710Y000985D01*
X014710Y000947D02*
X014612Y000947D01*
X014612Y000909D02*
X014710Y000909D01*
X014710Y000871D02*
X014612Y000871D01*
X014612Y000833D02*
X014710Y000833D01*
X014710Y000795D02*
X014612Y000795D01*
X014612Y000758D02*
X014844Y000758D01*
X014844Y000720D02*
X014612Y000720D01*
X014513Y000682D02*
X014415Y000682D01*
X014415Y000644D02*
X014513Y000644D01*
X014513Y000606D02*
X014415Y000606D01*
X017171Y000606D02*
X017269Y000606D01*
X017269Y000598D02*
X017269Y001433D01*
X017596Y001433D01*
X017596Y001531D01*
X017171Y001531D01*
X017171Y000500D01*
X018202Y000500D01*
X018202Y001531D01*
X017777Y001531D01*
X017777Y001433D01*
X018104Y001433D01*
X018104Y000598D01*
X017269Y000598D01*
X017269Y000644D02*
X017171Y000644D01*
X017171Y000682D02*
X017269Y000682D01*
X017269Y000720D02*
X017171Y000720D01*
X017171Y000758D02*
X017269Y000758D01*
X017269Y000795D02*
X017171Y000795D01*
X017171Y000833D02*
X017269Y000833D01*
X017269Y000871D02*
X017171Y000871D01*
X017171Y000909D02*
X017269Y000909D01*
X017269Y000947D02*
X017171Y000947D01*
X017171Y000985D02*
X017269Y000985D01*
X017269Y001023D02*
X017171Y001023D01*
X017171Y001061D02*
X017269Y001061D01*
X017269Y001098D02*
X017171Y001098D01*
X017171Y001136D02*
X017269Y001136D01*
X017269Y001174D02*
X017171Y001174D01*
X017171Y001212D02*
X017269Y001212D01*
X017269Y001250D02*
X017171Y001250D01*
X017171Y001288D02*
X017269Y001288D01*
X017269Y001326D02*
X017171Y001326D01*
X017171Y001364D02*
X017269Y001364D01*
X017269Y001401D02*
X017171Y001401D01*
X017171Y001439D02*
X017596Y001439D01*
X017596Y001477D02*
X017171Y001477D01*
X017171Y001515D02*
X017596Y001515D01*
X017777Y001515D02*
X018202Y001515D01*
X018202Y001477D02*
X017777Y001477D01*
X017777Y001439D02*
X018202Y001439D01*
X018202Y001401D02*
X018104Y001401D01*
X018104Y001364D02*
X018202Y001364D01*
X018202Y001326D02*
X018104Y001326D01*
X018104Y001288D02*
X018202Y001288D01*
X018202Y001250D02*
X018104Y001250D01*
X018104Y001212D02*
X018202Y001212D01*
X018202Y001174D02*
X018104Y001174D01*
X018104Y001136D02*
X018202Y001136D01*
X018202Y001098D02*
X018104Y001098D01*
X018104Y001061D02*
X018202Y001061D01*
X018202Y001023D02*
X018104Y001023D01*
X018104Y000985D02*
X018202Y000985D01*
X018202Y000947D02*
X018104Y000947D01*
X018104Y000909D02*
X018202Y000909D01*
X018202Y000871D02*
X018104Y000871D01*
X018104Y000833D02*
X018202Y000833D01*
X018202Y000795D02*
X018104Y000795D01*
X018104Y000758D02*
X018202Y000758D01*
X018202Y000720D02*
X018104Y000720D01*
X018104Y000682D02*
X018202Y000682D01*
X018202Y000644D02*
X018104Y000644D01*
X018104Y000606D02*
X018202Y000606D01*
X018202Y000568D02*
X017171Y000568D01*
X017171Y000530D02*
X018202Y000530D01*
X018009Y000697D02*
X017777Y000697D01*
X017777Y000795D01*
X017911Y000795D01*
X017911Y001236D01*
X017466Y001236D01*
X017466Y000795D01*
X017600Y000795D01*
X017600Y000697D01*
X017368Y000697D01*
X017368Y001335D01*
X018009Y001335D01*
X018009Y000697D01*
X018009Y000720D02*
X017777Y000720D01*
X017777Y000758D02*
X018009Y000758D01*
X018009Y000795D02*
X017911Y000795D01*
X017911Y000833D02*
X018009Y000833D01*
X018009Y000871D02*
X017911Y000871D01*
X017911Y000909D02*
X018009Y000909D01*
X018009Y000947D02*
X017911Y000947D01*
X017911Y000985D02*
X018009Y000985D01*
X018009Y001023D02*
X017911Y001023D01*
X017911Y001061D02*
X018009Y001061D01*
X018009Y001098D02*
X017911Y001098D01*
X017911Y001136D02*
X018009Y001136D01*
X018009Y001174D02*
X017911Y001174D01*
X017911Y001212D02*
X018009Y001212D01*
X018009Y001250D02*
X017368Y001250D01*
X017368Y001288D02*
X018009Y001288D01*
X018009Y001326D02*
X017368Y001326D01*
X017368Y001212D02*
X017466Y001212D01*
X017466Y001174D02*
X017368Y001174D01*
X017368Y001136D02*
X017466Y001136D01*
X017466Y001098D02*
X017368Y001098D01*
X017368Y001061D02*
X017466Y001061D01*
X017466Y001023D02*
X017368Y001023D01*
X017368Y000985D02*
X017466Y000985D01*
X017466Y000947D02*
X017368Y000947D01*
X017368Y000909D02*
X017466Y000909D01*
X017466Y000871D02*
X017368Y000871D01*
X017368Y000833D02*
X017466Y000833D01*
X017466Y000795D02*
X017368Y000795D01*
X017368Y000758D02*
X017600Y000758D01*
X017600Y000720D02*
X017368Y000720D01*
X019927Y000720D02*
X020025Y000720D01*
X020025Y000758D02*
X019927Y000758D01*
X019927Y000795D02*
X020025Y000795D01*
X020025Y000833D02*
X019927Y000833D01*
X019927Y000871D02*
X020025Y000871D01*
X020025Y000909D02*
X019927Y000909D01*
X019927Y000947D02*
X020025Y000947D01*
X020025Y000985D02*
X019927Y000985D01*
X019927Y001023D02*
X020025Y001023D01*
X020025Y001061D02*
X019927Y001061D01*
X019927Y001098D02*
X020025Y001098D01*
X020025Y001136D02*
X019927Y001136D01*
X019927Y001174D02*
X020025Y001174D01*
X020025Y001212D02*
X019927Y001212D01*
X019927Y001250D02*
X020025Y001250D01*
X020025Y001288D02*
X019927Y001288D01*
X019927Y001326D02*
X020025Y001326D01*
X020025Y001364D02*
X019927Y001364D01*
X019927Y001401D02*
X020025Y001401D01*
X020025Y001433D02*
X020352Y001433D01*
X020352Y001531D01*
X019927Y001531D01*
X019927Y000500D01*
X020958Y000500D01*
X020958Y001531D01*
X020533Y001531D01*
X020533Y001433D01*
X020860Y001433D01*
X020860Y000598D01*
X020025Y000598D01*
X020025Y001433D01*
X019927Y001439D02*
X020352Y001439D01*
X020352Y001477D02*
X019927Y001477D01*
X019927Y001515D02*
X020352Y001515D01*
X020533Y001515D02*
X020958Y001515D01*
X020958Y001477D02*
X020533Y001477D01*
X020533Y001439D02*
X020958Y001439D01*
X020958Y001401D02*
X020860Y001401D01*
X020860Y001364D02*
X020958Y001364D01*
X020958Y001326D02*
X020860Y001326D01*
X020860Y001288D02*
X020958Y001288D01*
X020958Y001250D02*
X020860Y001250D01*
X020860Y001212D02*
X020958Y001212D01*
X020958Y001174D02*
X020860Y001174D01*
X020860Y001136D02*
X020958Y001136D01*
X020958Y001098D02*
X020860Y001098D01*
X020860Y001061D02*
X020958Y001061D01*
X020958Y001023D02*
X020860Y001023D01*
X020860Y000985D02*
X020958Y000985D01*
X020958Y000947D02*
X020860Y000947D01*
X020860Y000909D02*
X020958Y000909D01*
X020958Y000871D02*
X020860Y000871D01*
X020860Y000833D02*
X020958Y000833D01*
X020958Y000795D02*
X020860Y000795D01*
X020860Y000758D02*
X020958Y000758D01*
X020958Y000720D02*
X020860Y000720D01*
X020860Y000682D02*
X020958Y000682D01*
X020958Y000644D02*
X020860Y000644D01*
X020860Y000606D02*
X020958Y000606D01*
X020958Y000568D02*
X019927Y000568D01*
X019927Y000530D02*
X020958Y000530D01*
X020765Y000697D02*
X020533Y000697D01*
X020533Y000795D01*
X020667Y000795D01*
X020667Y001236D01*
X020222Y001236D01*
X020222Y000795D01*
X020356Y000795D01*
X020356Y000697D01*
X020124Y000697D01*
X020124Y001335D01*
X020765Y001335D01*
X020765Y000697D01*
X020765Y000720D02*
X020533Y000720D01*
X020533Y000758D02*
X020765Y000758D01*
X020765Y000795D02*
X020667Y000795D01*
X020667Y000833D02*
X020765Y000833D01*
X020765Y000871D02*
X020667Y000871D01*
X020667Y000909D02*
X020765Y000909D01*
X020765Y000947D02*
X020667Y000947D01*
X020667Y000985D02*
X020765Y000985D01*
X020765Y001023D02*
X020667Y001023D01*
X020667Y001061D02*
X020765Y001061D01*
X020765Y001098D02*
X020667Y001098D01*
X020667Y001136D02*
X020765Y001136D01*
X020765Y001174D02*
X020667Y001174D01*
X020667Y001212D02*
X020765Y001212D01*
X020765Y001250D02*
X020124Y001250D01*
X020124Y001288D02*
X020765Y001288D01*
X020765Y001326D02*
X020124Y001326D01*
X020124Y001212D02*
X020222Y001212D01*
X020222Y001174D02*
X020124Y001174D01*
X020124Y001136D02*
X020222Y001136D01*
X020222Y001098D02*
X020124Y001098D01*
X020124Y001061D02*
X020222Y001061D01*
X020222Y001023D02*
X020124Y001023D01*
X020124Y000985D02*
X020222Y000985D01*
X020222Y000947D02*
X020124Y000947D01*
X020124Y000909D02*
X020222Y000909D01*
X020222Y000871D02*
X020124Y000871D01*
X020124Y000833D02*
X020222Y000833D01*
X020222Y000795D02*
X020124Y000795D01*
X020124Y000758D02*
X020356Y000758D01*
X020356Y000720D02*
X020124Y000720D01*
X020025Y000682D02*
X019927Y000682D01*
X019927Y000644D02*
X020025Y000644D01*
X020025Y000606D02*
X019927Y000606D01*
X022683Y000606D02*
X022781Y000606D01*
X022781Y000598D02*
X022781Y001433D01*
X023108Y001433D01*
X023108Y001531D01*
X022683Y001531D01*
X022683Y000500D01*
X023714Y000500D01*
X023714Y001531D01*
X023289Y001531D01*
X023289Y001433D01*
X023616Y001433D01*
X023616Y000598D01*
X022781Y000598D01*
X022781Y000644D02*
X022683Y000644D01*
X022683Y000682D02*
X022781Y000682D01*
X022781Y000720D02*
X022683Y000720D01*
X022683Y000758D02*
X022781Y000758D01*
X022781Y000795D02*
X022683Y000795D01*
X022683Y000833D02*
X022781Y000833D01*
X022781Y000871D02*
X022683Y000871D01*
X022683Y000909D02*
X022781Y000909D01*
X022781Y000947D02*
X022683Y000947D01*
X022683Y000985D02*
X022781Y000985D01*
X022781Y001023D02*
X022683Y001023D01*
X022683Y001061D02*
X022781Y001061D01*
X022781Y001098D02*
X022683Y001098D01*
X022683Y001136D02*
X022781Y001136D01*
X022781Y001174D02*
X022683Y001174D01*
X022683Y001212D02*
X022781Y001212D01*
X022781Y001250D02*
X022683Y001250D01*
X022683Y001288D02*
X022781Y001288D01*
X022781Y001326D02*
X022683Y001326D01*
X022683Y001364D02*
X022781Y001364D01*
X022781Y001401D02*
X022683Y001401D01*
X022683Y001439D02*
X023108Y001439D01*
X023108Y001477D02*
X022683Y001477D01*
X022683Y001515D02*
X023108Y001515D01*
X023289Y001515D02*
X023714Y001515D01*
X023714Y001477D02*
X023289Y001477D01*
X023289Y001439D02*
X023714Y001439D01*
X023714Y001401D02*
X023616Y001401D01*
X023616Y001364D02*
X023714Y001364D01*
X023714Y001326D02*
X023616Y001326D01*
X023616Y001288D02*
X023714Y001288D01*
X023714Y001250D02*
X023616Y001250D01*
X023616Y001212D02*
X023714Y001212D01*
X023714Y001174D02*
X023616Y001174D01*
X023616Y001136D02*
X023714Y001136D01*
X023714Y001098D02*
X023616Y001098D01*
X023616Y001061D02*
X023714Y001061D01*
X023714Y001023D02*
X023616Y001023D01*
X023616Y000985D02*
X023714Y000985D01*
X023714Y000947D02*
X023616Y000947D01*
X023616Y000909D02*
X023714Y000909D01*
X023714Y000871D02*
X023616Y000871D01*
X023616Y000833D02*
X023714Y000833D01*
X023714Y000795D02*
X023616Y000795D01*
X023616Y000758D02*
X023714Y000758D01*
X023714Y000720D02*
X023616Y000720D01*
X023616Y000682D02*
X023714Y000682D01*
X023714Y000644D02*
X023616Y000644D01*
X023616Y000606D02*
X023714Y000606D01*
X023714Y000568D02*
X022683Y000568D01*
X022683Y000530D02*
X023714Y000530D01*
X023521Y000697D02*
X023289Y000697D01*
X023289Y000795D01*
X023423Y000795D01*
X023423Y001236D01*
X022978Y001236D01*
X022978Y000795D01*
X023112Y000795D01*
X023112Y000697D01*
X022880Y000697D01*
X022880Y001335D01*
X023521Y001335D01*
X023521Y000697D01*
X023521Y000720D02*
X023289Y000720D01*
X023289Y000758D02*
X023521Y000758D01*
X023521Y000795D02*
X023423Y000795D01*
X023423Y000833D02*
X023521Y000833D01*
X023521Y000871D02*
X023423Y000871D01*
X023423Y000909D02*
X023521Y000909D01*
X023521Y000947D02*
X023423Y000947D01*
X023423Y000985D02*
X023521Y000985D01*
X023521Y001023D02*
X023423Y001023D01*
X023423Y001061D02*
X023521Y001061D01*
X023521Y001098D02*
X023423Y001098D01*
X023423Y001136D02*
X023521Y001136D01*
X023521Y001174D02*
X023423Y001174D01*
X023423Y001212D02*
X023521Y001212D01*
X023521Y001250D02*
X022880Y001250D01*
X022880Y001288D02*
X023521Y001288D01*
X023521Y001326D02*
X022880Y001326D01*
X022880Y001212D02*
X022978Y001212D01*
X022978Y001174D02*
X022880Y001174D01*
X022880Y001136D02*
X022978Y001136D01*
X022978Y001098D02*
X022880Y001098D01*
X022880Y001061D02*
X022978Y001061D01*
X022978Y001023D02*
X022880Y001023D01*
X022880Y000985D02*
X022978Y000985D01*
X022978Y000947D02*
X022880Y000947D01*
X022880Y000909D02*
X022978Y000909D01*
X022978Y000871D02*
X022880Y000871D01*
X022880Y000833D02*
X022978Y000833D01*
X022978Y000795D02*
X022880Y000795D01*
X022880Y000758D02*
X023112Y000758D01*
X023112Y000720D02*
X022880Y000720D01*
X025439Y000720D02*
X025537Y000720D01*
X025537Y000758D02*
X025439Y000758D01*
X025439Y000795D02*
X025537Y000795D01*
X025537Y000833D02*
X025439Y000833D01*
X025439Y000871D02*
X025537Y000871D01*
X025537Y000909D02*
X025439Y000909D01*
X025439Y000947D02*
X025537Y000947D01*
X025537Y000985D02*
X025439Y000985D01*
X025439Y001023D02*
X025537Y001023D01*
X025537Y001061D02*
X025439Y001061D01*
X025439Y001098D02*
X025537Y001098D01*
X025537Y001136D02*
X025439Y001136D01*
X025439Y001174D02*
X025537Y001174D01*
X025537Y001212D02*
X025439Y001212D01*
X025439Y001250D02*
X025537Y001250D01*
X025537Y001288D02*
X025439Y001288D01*
X025439Y001326D02*
X025537Y001326D01*
X025537Y001364D02*
X025439Y001364D01*
X025439Y001401D02*
X025537Y001401D01*
X025537Y001433D02*
X025864Y001433D01*
X025864Y001531D01*
X025439Y001531D01*
X025439Y000500D01*
X026470Y000500D01*
X026470Y001531D01*
X026045Y001531D01*
X026045Y001433D01*
X026372Y001433D01*
X026372Y000598D01*
X025537Y000598D01*
X025537Y001433D01*
X025439Y001439D02*
X025864Y001439D01*
X025864Y001477D02*
X025439Y001477D01*
X025439Y001515D02*
X025864Y001515D01*
X026045Y001515D02*
X026470Y001515D01*
X026470Y001477D02*
X026045Y001477D01*
X026045Y001439D02*
X026470Y001439D01*
X026470Y001401D02*
X026372Y001401D01*
X026372Y001364D02*
X026470Y001364D01*
X026470Y001326D02*
X026372Y001326D01*
X026372Y001288D02*
X026470Y001288D01*
X026470Y001250D02*
X026372Y001250D01*
X026372Y001212D02*
X026470Y001212D01*
X026470Y001174D02*
X026372Y001174D01*
X026372Y001136D02*
X026470Y001136D01*
X026470Y001098D02*
X026372Y001098D01*
X026372Y001061D02*
X026470Y001061D01*
X026470Y001023D02*
X026372Y001023D01*
X026372Y000985D02*
X026470Y000985D01*
X026470Y000947D02*
X026372Y000947D01*
X026372Y000909D02*
X026470Y000909D01*
X026470Y000871D02*
X026372Y000871D01*
X026372Y000833D02*
X026470Y000833D01*
X026470Y000795D02*
X026372Y000795D01*
X026372Y000758D02*
X026470Y000758D01*
X026470Y000720D02*
X026372Y000720D01*
X026372Y000682D02*
X026470Y000682D01*
X026470Y000644D02*
X026372Y000644D01*
X026372Y000606D02*
X026470Y000606D01*
X026470Y000568D02*
X025439Y000568D01*
X025439Y000530D02*
X026470Y000530D01*
X025537Y000606D02*
X025439Y000606D01*
X025439Y000644D02*
X025537Y000644D01*
X025537Y000682D02*
X025439Y000682D01*
X025635Y000697D02*
X025635Y001335D01*
X026277Y001335D01*
X026277Y000697D01*
X026045Y000697D01*
X026045Y000795D01*
X026179Y000795D01*
X026179Y001236D01*
X025734Y001236D01*
X025734Y000795D01*
X025868Y000795D01*
X025868Y000697D01*
X025635Y000697D01*
X025635Y000720D02*
X025868Y000720D01*
X025868Y000758D02*
X025635Y000758D01*
X025635Y000795D02*
X025734Y000795D01*
X025734Y000833D02*
X025635Y000833D01*
X025635Y000871D02*
X025734Y000871D01*
X025734Y000909D02*
X025635Y000909D01*
X025635Y000947D02*
X025734Y000947D01*
X025734Y000985D02*
X025635Y000985D01*
X025635Y001023D02*
X025734Y001023D01*
X025734Y001061D02*
X025635Y001061D01*
X025635Y001098D02*
X025734Y001098D01*
X025734Y001136D02*
X025635Y001136D01*
X025635Y001174D02*
X025734Y001174D01*
X025734Y001212D02*
X025635Y001212D01*
X025635Y001250D02*
X026277Y001250D01*
X026277Y001288D02*
X025635Y001288D01*
X025635Y001326D02*
X026277Y001326D01*
X026277Y001212D02*
X026179Y001212D01*
X026179Y001174D02*
X026277Y001174D01*
X026277Y001136D02*
X026179Y001136D01*
X026179Y001098D02*
X026277Y001098D01*
X026277Y001061D02*
X026179Y001061D01*
X026179Y001023D02*
X026277Y001023D01*
X026277Y000985D02*
X026179Y000985D01*
X026179Y000947D02*
X026277Y000947D01*
X026277Y000909D02*
X026179Y000909D01*
X026179Y000871D02*
X026277Y000871D01*
X026277Y000833D02*
X026179Y000833D01*
X026179Y000795D02*
X026277Y000795D01*
X026277Y000758D02*
X026045Y000758D01*
X026045Y000720D02*
X026277Y000720D01*
X026470Y001728D02*
X025439Y001728D01*
X025439Y002760D01*
X025864Y002760D01*
X025864Y002661D01*
X025537Y002661D01*
X025537Y001827D01*
X026372Y001827D01*
X026372Y002661D01*
X026045Y002661D01*
X026045Y002760D01*
X026470Y002760D01*
X026470Y001728D01*
X026470Y001742D02*
X025439Y001742D01*
X025439Y001780D02*
X026470Y001780D01*
X026470Y001818D02*
X025439Y001818D01*
X025439Y001856D02*
X025537Y001856D01*
X025537Y001894D02*
X025439Y001894D01*
X025439Y001932D02*
X025537Y001932D01*
X025537Y001969D02*
X025439Y001969D01*
X025439Y002007D02*
X025537Y002007D01*
X025537Y002045D02*
X025439Y002045D01*
X025439Y002083D02*
X025537Y002083D01*
X025537Y002121D02*
X025439Y002121D01*
X025439Y002159D02*
X025537Y002159D01*
X025537Y002197D02*
X025439Y002197D01*
X025439Y002235D02*
X025537Y002235D01*
X025537Y002272D02*
X025439Y002272D01*
X025439Y002310D02*
X025537Y002310D01*
X025537Y002348D02*
X025439Y002348D01*
X025439Y002386D02*
X025537Y002386D01*
X025537Y002424D02*
X025439Y002424D01*
X025439Y002462D02*
X025537Y002462D01*
X025537Y002500D02*
X025439Y002500D01*
X025439Y002537D02*
X025537Y002537D01*
X025537Y002575D02*
X025439Y002575D01*
X025439Y002613D02*
X025537Y002613D01*
X025537Y002651D02*
X025439Y002651D01*
X025439Y002689D02*
X025864Y002689D01*
X025864Y002727D02*
X025439Y002727D01*
X026045Y002727D02*
X026470Y002727D01*
X026470Y002689D02*
X026045Y002689D01*
X026372Y002651D02*
X026470Y002651D01*
X026470Y002613D02*
X026372Y002613D01*
X026372Y002575D02*
X026470Y002575D01*
X026470Y002537D02*
X026372Y002537D01*
X026372Y002500D02*
X026470Y002500D01*
X026470Y002462D02*
X026372Y002462D01*
X026372Y002424D02*
X026470Y002424D01*
X026470Y002386D02*
X026372Y002386D01*
X026372Y002348D02*
X026470Y002348D01*
X026470Y002310D02*
X026372Y002310D01*
X026372Y002272D02*
X026470Y002272D01*
X026470Y002235D02*
X026372Y002235D01*
X026372Y002197D02*
X026470Y002197D01*
X026470Y002159D02*
X026372Y002159D01*
X026372Y002121D02*
X026470Y002121D01*
X026470Y002083D02*
X026372Y002083D01*
X026372Y002045D02*
X026470Y002045D01*
X026470Y002007D02*
X026372Y002007D01*
X026372Y001969D02*
X026470Y001969D01*
X026470Y001932D02*
X026372Y001932D01*
X026372Y001894D02*
X026470Y001894D01*
X026470Y001856D02*
X026372Y001856D01*
X026277Y001925D02*
X026045Y001925D01*
X026045Y002024D01*
X026179Y002024D01*
X026179Y002465D01*
X025734Y002465D01*
X025734Y002024D01*
X025868Y002024D01*
X025868Y001925D01*
X025635Y001925D01*
X025635Y002563D01*
X026277Y002563D01*
X026277Y001925D01*
X026277Y001932D02*
X026045Y001932D01*
X026045Y001969D02*
X026277Y001969D01*
X026277Y002007D02*
X026045Y002007D01*
X026179Y002045D02*
X026277Y002045D01*
X026277Y002083D02*
X026179Y002083D01*
X026179Y002121D02*
X026277Y002121D01*
X026277Y002159D02*
X026179Y002159D01*
X026179Y002197D02*
X026277Y002197D01*
X026277Y002235D02*
X026179Y002235D01*
X026179Y002272D02*
X026277Y002272D01*
X026277Y002310D02*
X026179Y002310D01*
X026179Y002348D02*
X026277Y002348D01*
X026277Y002386D02*
X026179Y002386D01*
X026179Y002424D02*
X026277Y002424D01*
X026277Y002462D02*
X026179Y002462D01*
X026277Y002500D02*
X025635Y002500D01*
X025635Y002537D02*
X026277Y002537D01*
X025734Y002462D02*
X025635Y002462D01*
X025635Y002424D02*
X025734Y002424D01*
X025734Y002386D02*
X025635Y002386D01*
X025635Y002348D02*
X025734Y002348D01*
X025734Y002310D02*
X025635Y002310D01*
X025635Y002272D02*
X025734Y002272D01*
X025734Y002235D02*
X025635Y002235D01*
X025635Y002197D02*
X025734Y002197D01*
X025734Y002159D02*
X025635Y002159D01*
X025635Y002121D02*
X025734Y002121D01*
X025734Y002083D02*
X025635Y002083D01*
X025635Y002045D02*
X025734Y002045D01*
X025635Y002007D02*
X025868Y002007D01*
X025868Y001969D02*
X025635Y001969D01*
X025635Y001932D02*
X025868Y001932D01*
X023714Y001932D02*
X023616Y001932D01*
X023616Y001969D02*
X023714Y001969D01*
X023714Y002007D02*
X023616Y002007D01*
X023616Y002045D02*
X023714Y002045D01*
X023714Y002083D02*
X023616Y002083D01*
X023616Y002121D02*
X023714Y002121D01*
X023714Y002159D02*
X023616Y002159D01*
X023616Y002197D02*
X023714Y002197D01*
X023714Y002235D02*
X023616Y002235D01*
X023616Y002272D02*
X023714Y002272D01*
X023714Y002310D02*
X023616Y002310D01*
X023616Y002348D02*
X023714Y002348D01*
X023714Y002386D02*
X023616Y002386D01*
X023616Y002424D02*
X023714Y002424D01*
X023714Y002462D02*
X023616Y002462D01*
X023616Y002500D02*
X023714Y002500D01*
X023714Y002537D02*
X023616Y002537D01*
X023616Y002575D02*
X023714Y002575D01*
X023714Y002613D02*
X023616Y002613D01*
X023616Y002651D02*
X023714Y002651D01*
X023714Y002689D02*
X023289Y002689D01*
X023289Y002661D02*
X023616Y002661D01*
X023616Y001827D01*
X022781Y001827D01*
X022781Y002661D01*
X023108Y002661D01*
X023108Y002760D01*
X022683Y002760D01*
X022683Y001728D01*
X023714Y001728D01*
X023714Y002760D01*
X023289Y002760D01*
X023289Y002661D01*
X023108Y002689D02*
X022683Y002689D01*
X022683Y002727D02*
X023108Y002727D01*
X023289Y002727D02*
X023714Y002727D01*
X022781Y002651D02*
X022683Y002651D01*
X022683Y002613D02*
X022781Y002613D01*
X022781Y002575D02*
X022683Y002575D01*
X022683Y002537D02*
X022781Y002537D01*
X022781Y002500D02*
X022683Y002500D01*
X022683Y002462D02*
X022781Y002462D01*
X022781Y002424D02*
X022683Y002424D01*
X022683Y002386D02*
X022781Y002386D01*
X022781Y002348D02*
X022683Y002348D01*
X022683Y002310D02*
X022781Y002310D01*
X022781Y002272D02*
X022683Y002272D01*
X022683Y002235D02*
X022781Y002235D01*
X022781Y002197D02*
X022683Y002197D01*
X022683Y002159D02*
X022781Y002159D01*
X022781Y002121D02*
X022683Y002121D01*
X022683Y002083D02*
X022781Y002083D01*
X022781Y002045D02*
X022683Y002045D01*
X022683Y002007D02*
X022781Y002007D01*
X022781Y001969D02*
X022683Y001969D01*
X022683Y001932D02*
X022781Y001932D01*
X022781Y001894D02*
X022683Y001894D01*
X022683Y001856D02*
X022781Y001856D01*
X022683Y001818D02*
X023714Y001818D01*
X023714Y001856D02*
X023616Y001856D01*
X023616Y001894D02*
X023714Y001894D01*
X023521Y001925D02*
X023521Y002563D01*
X022880Y002563D01*
X022880Y001925D01*
X023112Y001925D01*
X023112Y002024D01*
X022978Y002024D01*
X022978Y002465D01*
X023423Y002465D01*
X023423Y002024D01*
X023289Y002024D01*
X023289Y001925D01*
X023521Y001925D01*
X023521Y001932D02*
X023289Y001932D01*
X023289Y001969D02*
X023521Y001969D01*
X023521Y002007D02*
X023289Y002007D01*
X023423Y002045D02*
X023521Y002045D01*
X023521Y002083D02*
X023423Y002083D01*
X023423Y002121D02*
X023521Y002121D01*
X023521Y002159D02*
X023423Y002159D01*
X023423Y002197D02*
X023521Y002197D01*
X023521Y002235D02*
X023423Y002235D01*
X023423Y002272D02*
X023521Y002272D01*
X023521Y002310D02*
X023423Y002310D01*
X023423Y002348D02*
X023521Y002348D01*
X023521Y002386D02*
X023423Y002386D01*
X023423Y002424D02*
X023521Y002424D01*
X023521Y002462D02*
X023423Y002462D01*
X023521Y002500D02*
X022880Y002500D01*
X022880Y002537D02*
X023521Y002537D01*
X022978Y002462D02*
X022880Y002462D01*
X022880Y002424D02*
X022978Y002424D01*
X022978Y002386D02*
X022880Y002386D01*
X022880Y002348D02*
X022978Y002348D01*
X022978Y002310D02*
X022880Y002310D01*
X022880Y002272D02*
X022978Y002272D01*
X022978Y002235D02*
X022880Y002235D01*
X022880Y002197D02*
X022978Y002197D01*
X022978Y002159D02*
X022880Y002159D01*
X022880Y002121D02*
X022978Y002121D01*
X022978Y002083D02*
X022880Y002083D01*
X022880Y002045D02*
X022978Y002045D01*
X022880Y002007D02*
X023112Y002007D01*
X023112Y001969D02*
X022880Y001969D01*
X022880Y001932D02*
X023112Y001932D01*
X022683Y001780D02*
X023714Y001780D01*
X023714Y001742D02*
X022683Y001742D01*
X020958Y001742D02*
X019927Y001742D01*
X019927Y001728D02*
X019927Y002760D01*
X020352Y002760D01*
X020352Y002661D01*
X020025Y002661D01*
X020025Y001827D01*
X020860Y001827D01*
X020860Y002661D01*
X020533Y002661D01*
X020533Y002760D01*
X020958Y002760D01*
X020958Y001728D01*
X019927Y001728D01*
X019927Y001780D02*
X020958Y001780D01*
X020958Y001818D02*
X019927Y001818D01*
X019927Y001856D02*
X020025Y001856D01*
X020025Y001894D02*
X019927Y001894D01*
X019927Y001932D02*
X020025Y001932D01*
X020025Y001969D02*
X019927Y001969D01*
X019927Y002007D02*
X020025Y002007D01*
X020025Y002045D02*
X019927Y002045D01*
X019927Y002083D02*
X020025Y002083D01*
X020025Y002121D02*
X019927Y002121D01*
X019927Y002159D02*
X020025Y002159D01*
X020025Y002197D02*
X019927Y002197D01*
X019927Y002235D02*
X020025Y002235D01*
X020025Y002272D02*
X019927Y002272D01*
X019927Y002310D02*
X020025Y002310D01*
X020025Y002348D02*
X019927Y002348D01*
X019927Y002386D02*
X020025Y002386D01*
X020025Y002424D02*
X019927Y002424D01*
X019927Y002462D02*
X020025Y002462D01*
X020025Y002500D02*
X019927Y002500D01*
X019927Y002537D02*
X020025Y002537D01*
X020025Y002575D02*
X019927Y002575D01*
X019927Y002613D02*
X020025Y002613D01*
X020025Y002651D02*
X019927Y002651D01*
X019927Y002689D02*
X020352Y002689D01*
X020352Y002727D02*
X019927Y002727D01*
X020533Y002727D02*
X020958Y002727D01*
X020958Y002689D02*
X020533Y002689D01*
X020860Y002651D02*
X020958Y002651D01*
X020958Y002613D02*
X020860Y002613D01*
X020860Y002575D02*
X020958Y002575D01*
X020958Y002537D02*
X020860Y002537D01*
X020860Y002500D02*
X020958Y002500D01*
X020958Y002462D02*
X020860Y002462D01*
X020860Y002424D02*
X020958Y002424D01*
X020958Y002386D02*
X020860Y002386D01*
X020860Y002348D02*
X020958Y002348D01*
X020958Y002310D02*
X020860Y002310D01*
X020860Y002272D02*
X020958Y002272D01*
X020958Y002235D02*
X020860Y002235D01*
X020860Y002197D02*
X020958Y002197D01*
X020958Y002159D02*
X020860Y002159D01*
X020860Y002121D02*
X020958Y002121D01*
X020958Y002083D02*
X020860Y002083D01*
X020860Y002045D02*
X020958Y002045D01*
X020958Y002007D02*
X020860Y002007D01*
X020860Y001969D02*
X020958Y001969D01*
X020958Y001932D02*
X020860Y001932D01*
X020860Y001894D02*
X020958Y001894D01*
X020958Y001856D02*
X020860Y001856D01*
X020765Y001925D02*
X020765Y002563D01*
X020124Y002563D01*
X020124Y001925D01*
X020356Y001925D01*
X020356Y002024D01*
X020222Y002024D01*
X020222Y002465D01*
X020667Y002465D01*
X020667Y002024D01*
X020533Y002024D01*
X020533Y001925D01*
X020765Y001925D01*
X020765Y001932D02*
X020533Y001932D01*
X020533Y001969D02*
X020765Y001969D01*
X020765Y002007D02*
X020533Y002007D01*
X020667Y002045D02*
X020765Y002045D01*
X020765Y002083D02*
X020667Y002083D01*
X020667Y002121D02*
X020765Y002121D01*
X020765Y002159D02*
X020667Y002159D01*
X020667Y002197D02*
X020765Y002197D01*
X020765Y002235D02*
X020667Y002235D01*
X020667Y002272D02*
X020765Y002272D01*
X020765Y002310D02*
X020667Y002310D01*
X020667Y002348D02*
X020765Y002348D01*
X020765Y002386D02*
X020667Y002386D01*
X020667Y002424D02*
X020765Y002424D01*
X020765Y002462D02*
X020667Y002462D01*
X020765Y002500D02*
X020124Y002500D01*
X020124Y002537D02*
X020765Y002537D01*
X020222Y002462D02*
X020124Y002462D01*
X020124Y002424D02*
X020222Y002424D01*
X020222Y002386D02*
X020124Y002386D01*
X020124Y002348D02*
X020222Y002348D01*
X020222Y002310D02*
X020124Y002310D01*
X020124Y002272D02*
X020222Y002272D01*
X020222Y002235D02*
X020124Y002235D01*
X020124Y002197D02*
X020222Y002197D01*
X020222Y002159D02*
X020124Y002159D01*
X020124Y002121D02*
X020222Y002121D01*
X020222Y002083D02*
X020124Y002083D01*
X020124Y002045D02*
X020222Y002045D01*
X020124Y002007D02*
X020356Y002007D01*
X020356Y001969D02*
X020124Y001969D01*
X020124Y001932D02*
X020356Y001932D01*
X018202Y001932D02*
X018104Y001932D01*
X018104Y001969D02*
X018202Y001969D01*
X018202Y002007D02*
X018104Y002007D01*
X018104Y002045D02*
X018202Y002045D01*
X018202Y002083D02*
X018104Y002083D01*
X018104Y002121D02*
X018202Y002121D01*
X018202Y002159D02*
X018104Y002159D01*
X018104Y002197D02*
X018202Y002197D01*
X018202Y002235D02*
X018104Y002235D01*
X018104Y002272D02*
X018202Y002272D01*
X018202Y002310D02*
X018104Y002310D01*
X018104Y002348D02*
X018202Y002348D01*
X018202Y002386D02*
X018104Y002386D01*
X018104Y002424D02*
X018202Y002424D01*
X018202Y002462D02*
X018104Y002462D01*
X018104Y002500D02*
X018202Y002500D01*
X018202Y002537D02*
X018104Y002537D01*
X018104Y002575D02*
X018202Y002575D01*
X018202Y002613D02*
X018104Y002613D01*
X018104Y002651D02*
X018202Y002651D01*
X018202Y002689D02*
X017777Y002689D01*
X017777Y002661D02*
X018104Y002661D01*
X018104Y001827D01*
X017269Y001827D01*
X017269Y002661D01*
X017596Y002661D01*
X017596Y002760D01*
X017171Y002760D01*
X017171Y001728D01*
X018202Y001728D01*
X018202Y002760D01*
X017777Y002760D01*
X017777Y002661D01*
X017596Y002689D02*
X017171Y002689D01*
X017171Y002727D02*
X017596Y002727D01*
X017777Y002727D02*
X018202Y002727D01*
X018009Y002563D02*
X017368Y002563D01*
X017368Y001925D01*
X017600Y001925D01*
X017600Y002024D01*
X017466Y002024D01*
X017466Y002465D01*
X017911Y002465D01*
X017911Y002024D01*
X017777Y002024D01*
X017777Y001925D01*
X018009Y001925D01*
X018009Y002563D01*
X018009Y002537D02*
X017368Y002537D01*
X017368Y002500D02*
X018009Y002500D01*
X018009Y002462D02*
X017911Y002462D01*
X017911Y002424D02*
X018009Y002424D01*
X018009Y002386D02*
X017911Y002386D01*
X017911Y002348D02*
X018009Y002348D01*
X018009Y002310D02*
X017911Y002310D01*
X017911Y002272D02*
X018009Y002272D01*
X018009Y002235D02*
X017911Y002235D01*
X017911Y002197D02*
X018009Y002197D01*
X018009Y002159D02*
X017911Y002159D01*
X017911Y002121D02*
X018009Y002121D01*
X018009Y002083D02*
X017911Y002083D01*
X017911Y002045D02*
X018009Y002045D01*
X018009Y002007D02*
X017777Y002007D01*
X017777Y001969D02*
X018009Y001969D01*
X018009Y001932D02*
X017777Y001932D01*
X017600Y001932D02*
X017368Y001932D01*
X017368Y001969D02*
X017600Y001969D01*
X017600Y002007D02*
X017368Y002007D01*
X017368Y002045D02*
X017466Y002045D01*
X017466Y002083D02*
X017368Y002083D01*
X017368Y002121D02*
X017466Y002121D01*
X017466Y002159D02*
X017368Y002159D01*
X017368Y002197D02*
X017466Y002197D01*
X017466Y002235D02*
X017368Y002235D01*
X017368Y002272D02*
X017466Y002272D01*
X017466Y002310D02*
X017368Y002310D01*
X017368Y002348D02*
X017466Y002348D01*
X017466Y002386D02*
X017368Y002386D01*
X017368Y002424D02*
X017466Y002424D01*
X017466Y002462D02*
X017368Y002462D01*
X017269Y002462D02*
X017171Y002462D01*
X017171Y002500D02*
X017269Y002500D01*
X017269Y002537D02*
X017171Y002537D01*
X017171Y002575D02*
X017269Y002575D01*
X017269Y002613D02*
X017171Y002613D01*
X017171Y002651D02*
X017269Y002651D01*
X017269Y002424D02*
X017171Y002424D01*
X017171Y002386D02*
X017269Y002386D01*
X017269Y002348D02*
X017171Y002348D01*
X017171Y002310D02*
X017269Y002310D01*
X017269Y002272D02*
X017171Y002272D01*
X017171Y002235D02*
X017269Y002235D01*
X017269Y002197D02*
X017171Y002197D01*
X017171Y002159D02*
X017269Y002159D01*
X017269Y002121D02*
X017171Y002121D01*
X017171Y002083D02*
X017269Y002083D01*
X017269Y002045D02*
X017171Y002045D01*
X017171Y002007D02*
X017269Y002007D01*
X017269Y001969D02*
X017171Y001969D01*
X017171Y001932D02*
X017269Y001932D01*
X017269Y001894D02*
X017171Y001894D01*
X017171Y001856D02*
X017269Y001856D01*
X017171Y001818D02*
X018202Y001818D01*
X018202Y001856D02*
X018104Y001856D01*
X018104Y001894D02*
X018202Y001894D01*
X018202Y001780D02*
X017171Y001780D01*
X017171Y001742D02*
X018202Y001742D01*
X015446Y001742D02*
X014415Y001742D01*
X014415Y001728D02*
X014415Y002760D01*
X014840Y002760D01*
X014840Y002661D01*
X014513Y002661D01*
X014513Y001827D01*
X015348Y001827D01*
X015348Y002661D01*
X015021Y002661D01*
X015021Y002760D01*
X015446Y002760D01*
X015446Y001728D01*
X014415Y001728D01*
X014415Y001780D02*
X015446Y001780D01*
X015446Y001818D02*
X014415Y001818D01*
X014415Y001856D02*
X014513Y001856D01*
X014513Y001894D02*
X014415Y001894D01*
X014415Y001932D02*
X014513Y001932D01*
X014513Y001969D02*
X014415Y001969D01*
X014415Y002007D02*
X014513Y002007D01*
X014513Y002045D02*
X014415Y002045D01*
X014415Y002083D02*
X014513Y002083D01*
X014513Y002121D02*
X014415Y002121D01*
X014415Y002159D02*
X014513Y002159D01*
X014513Y002197D02*
X014415Y002197D01*
X014415Y002235D02*
X014513Y002235D01*
X014513Y002272D02*
X014415Y002272D01*
X014415Y002310D02*
X014513Y002310D01*
X014513Y002348D02*
X014415Y002348D01*
X014415Y002386D02*
X014513Y002386D01*
X014513Y002424D02*
X014415Y002424D01*
X014415Y002462D02*
X014513Y002462D01*
X014513Y002500D02*
X014415Y002500D01*
X014415Y002537D02*
X014513Y002537D01*
X014513Y002575D02*
X014415Y002575D01*
X014415Y002613D02*
X014513Y002613D01*
X014513Y002651D02*
X014415Y002651D01*
X014415Y002689D02*
X014840Y002689D01*
X014840Y002727D02*
X014415Y002727D01*
X015021Y002727D02*
X015446Y002727D01*
X015446Y002689D02*
X015021Y002689D01*
X015348Y002651D02*
X015446Y002651D01*
X015446Y002613D02*
X015348Y002613D01*
X015348Y002575D02*
X015446Y002575D01*
X015446Y002537D02*
X015348Y002537D01*
X015348Y002500D02*
X015446Y002500D01*
X015446Y002462D02*
X015348Y002462D01*
X015348Y002424D02*
X015446Y002424D01*
X015446Y002386D02*
X015348Y002386D01*
X015348Y002348D02*
X015446Y002348D01*
X015446Y002310D02*
X015348Y002310D01*
X015348Y002272D02*
X015446Y002272D01*
X015446Y002235D02*
X015348Y002235D01*
X015348Y002197D02*
X015446Y002197D01*
X015446Y002159D02*
X015348Y002159D01*
X015348Y002121D02*
X015446Y002121D01*
X015446Y002083D02*
X015348Y002083D01*
X015348Y002045D02*
X015446Y002045D01*
X015446Y002007D02*
X015348Y002007D01*
X015348Y001969D02*
X015446Y001969D01*
X015446Y001932D02*
X015348Y001932D01*
X015348Y001894D02*
X015446Y001894D01*
X015446Y001856D02*
X015348Y001856D01*
X015254Y001925D02*
X015021Y001925D01*
X015021Y002024D01*
X015155Y002024D01*
X015155Y002465D01*
X014710Y002465D01*
X014710Y002024D01*
X014844Y002024D01*
X014844Y001925D01*
X014612Y001925D01*
X014612Y002563D01*
X015254Y002563D01*
X015254Y001925D01*
X015254Y001932D02*
X015021Y001932D01*
X015021Y001969D02*
X015254Y001969D01*
X015254Y002007D02*
X015021Y002007D01*
X015155Y002045D02*
X015254Y002045D01*
X015254Y002083D02*
X015155Y002083D01*
X015155Y002121D02*
X015254Y002121D01*
X015254Y002159D02*
X015155Y002159D01*
X015155Y002197D02*
X015254Y002197D01*
X015254Y002235D02*
X015155Y002235D01*
X015155Y002272D02*
X015254Y002272D01*
X015254Y002310D02*
X015155Y002310D01*
X015155Y002348D02*
X015254Y002348D01*
X015254Y002386D02*
X015155Y002386D01*
X015155Y002424D02*
X015254Y002424D01*
X015254Y002462D02*
X015155Y002462D01*
X015254Y002500D02*
X014612Y002500D01*
X014612Y002537D02*
X015254Y002537D01*
X014710Y002462D02*
X014612Y002462D01*
X014612Y002424D02*
X014710Y002424D01*
X014710Y002386D02*
X014612Y002386D01*
X014612Y002348D02*
X014710Y002348D01*
X014710Y002310D02*
X014612Y002310D01*
X014612Y002272D02*
X014710Y002272D01*
X014710Y002235D02*
X014612Y002235D01*
X014612Y002197D02*
X014710Y002197D01*
X014710Y002159D02*
X014612Y002159D01*
X014612Y002121D02*
X014710Y002121D01*
X014710Y002083D02*
X014612Y002083D01*
X014612Y002045D02*
X014710Y002045D01*
X014612Y002007D02*
X014844Y002007D01*
X014844Y001969D02*
X014612Y001969D01*
X014612Y001932D02*
X014844Y001932D01*
X012691Y001932D02*
X012592Y001932D01*
X012592Y001969D02*
X012691Y001969D01*
X012691Y002007D02*
X012592Y002007D01*
X012592Y002045D02*
X012691Y002045D01*
X012691Y002083D02*
X012592Y002083D01*
X012592Y002121D02*
X012691Y002121D01*
X012691Y002159D02*
X012592Y002159D01*
X012592Y002197D02*
X012691Y002197D01*
X012691Y002235D02*
X012592Y002235D01*
X012592Y002272D02*
X012691Y002272D01*
X012691Y002310D02*
X012592Y002310D01*
X012592Y002348D02*
X012691Y002348D01*
X012691Y002386D02*
X012592Y002386D01*
X012592Y002424D02*
X012691Y002424D01*
X012691Y002462D02*
X012592Y002462D01*
X012592Y002500D02*
X012691Y002500D01*
X012691Y002537D02*
X012592Y002537D01*
X012592Y002575D02*
X012691Y002575D01*
X012691Y002613D02*
X012592Y002613D01*
X012592Y002651D02*
X012691Y002651D01*
X012691Y002689D02*
X012265Y002689D01*
X012265Y002661D02*
X012592Y002661D01*
X012592Y001827D01*
X011757Y001827D01*
X011757Y002661D01*
X012084Y002661D01*
X012084Y002760D01*
X011659Y002760D01*
X011659Y001728D01*
X012691Y001728D01*
X012691Y002760D01*
X012265Y002760D01*
X012265Y002661D01*
X012084Y002689D02*
X011659Y002689D01*
X011659Y002727D02*
X012084Y002727D01*
X012265Y002727D02*
X012691Y002727D01*
X011757Y002651D02*
X011659Y002651D01*
X011659Y002613D02*
X011757Y002613D01*
X011757Y002575D02*
X011659Y002575D01*
X011659Y002537D02*
X011757Y002537D01*
X011757Y002500D02*
X011659Y002500D01*
X011659Y002462D02*
X011757Y002462D01*
X011757Y002424D02*
X011659Y002424D01*
X011659Y002386D02*
X011757Y002386D01*
X011757Y002348D02*
X011659Y002348D01*
X011659Y002310D02*
X011757Y002310D01*
X011757Y002272D02*
X011659Y002272D01*
X011659Y002235D02*
X011757Y002235D01*
X011757Y002197D02*
X011659Y002197D01*
X011659Y002159D02*
X011757Y002159D01*
X011757Y002121D02*
X011659Y002121D01*
X011659Y002083D02*
X011757Y002083D01*
X011757Y002045D02*
X011659Y002045D01*
X011659Y002007D02*
X011757Y002007D01*
X011757Y001969D02*
X011659Y001969D01*
X011659Y001932D02*
X011757Y001932D01*
X011757Y001894D02*
X011659Y001894D01*
X011659Y001856D02*
X011757Y001856D01*
X011659Y001818D02*
X012691Y001818D01*
X012691Y001856D02*
X012592Y001856D01*
X012592Y001894D02*
X012691Y001894D01*
X012498Y001925D02*
X012265Y001925D01*
X012265Y002024D01*
X012399Y002024D01*
X012399Y002465D01*
X011954Y002465D01*
X011954Y002024D01*
X012088Y002024D01*
X012088Y001925D01*
X011856Y001925D01*
X011856Y002563D01*
X012498Y002563D01*
X012498Y001925D01*
X012498Y001932D02*
X012265Y001932D01*
X012265Y001969D02*
X012498Y001969D01*
X012498Y002007D02*
X012265Y002007D01*
X012399Y002045D02*
X012498Y002045D01*
X012498Y002083D02*
X012399Y002083D01*
X012399Y002121D02*
X012498Y002121D01*
X012498Y002159D02*
X012399Y002159D01*
X012399Y002197D02*
X012498Y002197D01*
X012498Y002235D02*
X012399Y002235D01*
X012399Y002272D02*
X012498Y002272D01*
X012498Y002310D02*
X012399Y002310D01*
X012399Y002348D02*
X012498Y002348D01*
X012498Y002386D02*
X012399Y002386D01*
X012399Y002424D02*
X012498Y002424D01*
X012498Y002462D02*
X012399Y002462D01*
X012498Y002500D02*
X011856Y002500D01*
X011856Y002537D02*
X012498Y002537D01*
X011954Y002462D02*
X011856Y002462D01*
X011856Y002424D02*
X011954Y002424D01*
X011954Y002386D02*
X011856Y002386D01*
X011856Y002348D02*
X011954Y002348D01*
X011954Y002310D02*
X011856Y002310D01*
X011856Y002272D02*
X011954Y002272D01*
X011954Y002235D02*
X011856Y002235D01*
X011856Y002197D02*
X011954Y002197D01*
X011954Y002159D02*
X011856Y002159D01*
X011856Y002121D02*
X011954Y002121D01*
X011954Y002083D02*
X011856Y002083D01*
X011856Y002045D02*
X011954Y002045D01*
X011856Y002007D02*
X012088Y002007D01*
X012088Y001969D02*
X011856Y001969D01*
X011856Y001932D02*
X012088Y001932D01*
X011659Y001780D02*
X012691Y001780D01*
X012691Y001742D02*
X011659Y001742D01*
X009935Y001742D02*
X008903Y001742D01*
X008903Y001728D02*
X008903Y002760D01*
X009328Y002760D01*
X009328Y002661D01*
X009002Y002661D01*
X009002Y001827D01*
X009836Y001827D01*
X009836Y002661D01*
X009509Y002661D01*
X009509Y002760D01*
X009935Y002760D01*
X009935Y001728D01*
X008903Y001728D01*
X008903Y001780D02*
X009935Y001780D01*
X009935Y001818D02*
X008903Y001818D01*
X008903Y001856D02*
X009002Y001856D01*
X009002Y001894D02*
X008903Y001894D01*
X008903Y001932D02*
X009002Y001932D01*
X009002Y001969D02*
X008903Y001969D01*
X008903Y002007D02*
X009002Y002007D01*
X009002Y002045D02*
X008903Y002045D01*
X008903Y002083D02*
X009002Y002083D01*
X009002Y002121D02*
X008903Y002121D01*
X008903Y002159D02*
X009002Y002159D01*
X009002Y002197D02*
X008903Y002197D01*
X008903Y002235D02*
X009002Y002235D01*
X009002Y002272D02*
X008903Y002272D01*
X008903Y002310D02*
X009002Y002310D01*
X009002Y002348D02*
X008903Y002348D01*
X008903Y002386D02*
X009002Y002386D01*
X009002Y002424D02*
X008903Y002424D01*
X008903Y002462D02*
X009002Y002462D01*
X009002Y002500D02*
X008903Y002500D01*
X008903Y002537D02*
X009002Y002537D01*
X009002Y002575D02*
X008903Y002575D01*
X008903Y002613D02*
X009002Y002613D01*
X009002Y002651D02*
X008903Y002651D01*
X008903Y002689D02*
X009328Y002689D01*
X009328Y002727D02*
X008903Y002727D01*
X009509Y002727D02*
X009935Y002727D01*
X009935Y002689D02*
X009509Y002689D01*
X009836Y002651D02*
X009935Y002651D01*
X009935Y002613D02*
X009836Y002613D01*
X009836Y002575D02*
X009935Y002575D01*
X009935Y002537D02*
X009836Y002537D01*
X009836Y002500D02*
X009935Y002500D01*
X009935Y002462D02*
X009836Y002462D01*
X009836Y002424D02*
X009935Y002424D01*
X009935Y002386D02*
X009836Y002386D01*
X009836Y002348D02*
X009935Y002348D01*
X009935Y002310D02*
X009836Y002310D01*
X009836Y002272D02*
X009935Y002272D01*
X009935Y002235D02*
X009836Y002235D01*
X009836Y002197D02*
X009935Y002197D01*
X009935Y002159D02*
X009836Y002159D01*
X009836Y002121D02*
X009935Y002121D01*
X009935Y002083D02*
X009836Y002083D01*
X009836Y002045D02*
X009935Y002045D01*
X009935Y002007D02*
X009836Y002007D01*
X009836Y001969D02*
X009935Y001969D01*
X009935Y001932D02*
X009836Y001932D01*
X009836Y001894D02*
X009935Y001894D01*
X009935Y001856D02*
X009836Y001856D01*
X009742Y001925D02*
X009742Y002563D01*
X009100Y002563D01*
X009100Y001925D01*
X009332Y001925D01*
X009332Y002024D01*
X009198Y002024D01*
X009198Y002465D01*
X009643Y002465D01*
X009643Y002024D01*
X009509Y002024D01*
X009509Y001925D01*
X009742Y001925D01*
X009742Y001932D02*
X009509Y001932D01*
X009509Y001969D02*
X009742Y001969D01*
X009742Y002007D02*
X009509Y002007D01*
X009643Y002045D02*
X009742Y002045D01*
X009742Y002083D02*
X009643Y002083D01*
X009643Y002121D02*
X009742Y002121D01*
X009742Y002159D02*
X009643Y002159D01*
X009643Y002197D02*
X009742Y002197D01*
X009742Y002235D02*
X009643Y002235D01*
X009643Y002272D02*
X009742Y002272D01*
X009742Y002310D02*
X009643Y002310D01*
X009643Y002348D02*
X009742Y002348D01*
X009742Y002386D02*
X009643Y002386D01*
X009643Y002424D02*
X009742Y002424D01*
X009742Y002462D02*
X009643Y002462D01*
X009742Y002500D02*
X009100Y002500D01*
X009100Y002537D02*
X009742Y002537D01*
X009198Y002462D02*
X009100Y002462D01*
X009100Y002424D02*
X009198Y002424D01*
X009198Y002386D02*
X009100Y002386D01*
X009100Y002348D02*
X009198Y002348D01*
X009198Y002310D02*
X009100Y002310D01*
X009100Y002272D02*
X009198Y002272D01*
X009198Y002235D02*
X009100Y002235D01*
X009100Y002197D02*
X009198Y002197D01*
X009198Y002159D02*
X009100Y002159D01*
X009100Y002121D02*
X009198Y002121D01*
X009198Y002083D02*
X009100Y002083D01*
X009100Y002045D02*
X009198Y002045D01*
X009100Y002007D02*
X009332Y002007D01*
X009332Y001969D02*
X009100Y001969D01*
X009100Y001932D02*
X009332Y001932D01*
X007175Y001932D02*
X007076Y001932D01*
X007076Y001969D02*
X007175Y001969D01*
X007175Y002007D02*
X007076Y002007D01*
X007076Y002045D02*
X007175Y002045D01*
X007175Y002083D02*
X007076Y002083D01*
X007076Y002121D02*
X007175Y002121D01*
X007175Y002159D02*
X007076Y002159D01*
X007076Y002197D02*
X007175Y002197D01*
X007175Y002235D02*
X007076Y002235D01*
X007076Y002272D02*
X007175Y002272D01*
X007175Y002310D02*
X007076Y002310D01*
X007076Y002348D02*
X007175Y002348D01*
X007175Y002386D02*
X007076Y002386D01*
X007076Y002424D02*
X007175Y002424D01*
X007175Y002462D02*
X007076Y002462D01*
X007076Y002500D02*
X007175Y002500D01*
X007175Y002537D02*
X007076Y002537D01*
X007076Y002575D02*
X007175Y002575D01*
X007175Y002613D02*
X007076Y002613D01*
X007076Y002651D02*
X007175Y002651D01*
X007175Y002689D02*
X006750Y002689D01*
X006750Y002661D02*
X007076Y002661D01*
X007076Y001827D01*
X006242Y001827D01*
X006242Y002661D01*
X006569Y002661D01*
X006569Y002760D01*
X006143Y002760D01*
X006143Y001728D01*
X007175Y001728D01*
X007175Y002760D01*
X006750Y002760D01*
X006750Y002661D01*
X006569Y002689D02*
X006143Y002689D01*
X006143Y002727D02*
X006569Y002727D01*
X006750Y002727D02*
X007175Y002727D01*
X006242Y002651D02*
X006143Y002651D01*
X006143Y002613D02*
X006242Y002613D01*
X006242Y002575D02*
X006143Y002575D01*
X006143Y002537D02*
X006242Y002537D01*
X006242Y002500D02*
X006143Y002500D01*
X006143Y002462D02*
X006242Y002462D01*
X006242Y002424D02*
X006143Y002424D01*
X006143Y002386D02*
X006242Y002386D01*
X006242Y002348D02*
X006143Y002348D01*
X006143Y002310D02*
X006242Y002310D01*
X006242Y002272D02*
X006143Y002272D01*
X006143Y002235D02*
X006242Y002235D01*
X006242Y002197D02*
X006143Y002197D01*
X006143Y002159D02*
X006242Y002159D01*
X006242Y002121D02*
X006143Y002121D01*
X006143Y002083D02*
X006242Y002083D01*
X006242Y002045D02*
X006143Y002045D01*
X006143Y002007D02*
X006242Y002007D01*
X006242Y001969D02*
X006143Y001969D01*
X006143Y001932D02*
X006242Y001932D01*
X006242Y001894D02*
X006143Y001894D01*
X006143Y001856D02*
X006242Y001856D01*
X006143Y001818D02*
X007175Y001818D01*
X007175Y001856D02*
X007076Y001856D01*
X007076Y001894D02*
X007175Y001894D01*
X006982Y001925D02*
X006982Y002563D01*
X006340Y002563D01*
X006340Y001925D01*
X006572Y001925D01*
X006572Y002024D01*
X006439Y002024D01*
X006439Y002465D01*
X006883Y002465D01*
X006883Y002024D01*
X006750Y002024D01*
X006750Y001925D01*
X006982Y001925D01*
X006982Y001932D02*
X006750Y001932D01*
X006750Y001969D02*
X006982Y001969D01*
X006982Y002007D02*
X006750Y002007D01*
X006883Y002045D02*
X006982Y002045D01*
X006982Y002083D02*
X006883Y002083D01*
X006883Y002121D02*
X006982Y002121D01*
X006982Y002159D02*
X006883Y002159D01*
X006883Y002197D02*
X006982Y002197D01*
X006982Y002235D02*
X006883Y002235D01*
X006883Y002272D02*
X006982Y002272D01*
X006982Y002310D02*
X006883Y002310D01*
X006883Y002348D02*
X006982Y002348D01*
X006982Y002386D02*
X006883Y002386D01*
X006883Y002424D02*
X006982Y002424D01*
X006982Y002462D02*
X006883Y002462D01*
X006982Y002500D02*
X006340Y002500D01*
X006340Y002537D02*
X006982Y002537D01*
X006439Y002462D02*
X006340Y002462D01*
X006340Y002424D02*
X006439Y002424D01*
X006439Y002386D02*
X006340Y002386D01*
X006340Y002348D02*
X006439Y002348D01*
X006439Y002310D02*
X006340Y002310D01*
X006340Y002272D02*
X006439Y002272D01*
X006439Y002235D02*
X006340Y002235D01*
X006340Y002197D02*
X006439Y002197D01*
X006439Y002159D02*
X006340Y002159D01*
X006340Y002121D02*
X006439Y002121D01*
X006439Y002083D02*
X006340Y002083D01*
X006340Y002045D02*
X006439Y002045D01*
X006340Y002007D02*
X006572Y002007D01*
X006572Y001969D02*
X006340Y001969D01*
X006340Y001932D02*
X006572Y001932D01*
X006143Y001780D02*
X007175Y001780D01*
X007175Y001742D02*
X006143Y001742D01*
X004419Y001742D02*
X003387Y001742D01*
X003387Y001728D02*
X003387Y002760D01*
X003813Y002760D01*
X003813Y002661D01*
X003486Y002661D01*
X003486Y001827D01*
X004320Y001827D01*
X004320Y002661D01*
X003994Y002661D01*
X003994Y002760D01*
X004419Y002760D01*
X004419Y001728D01*
X003387Y001728D01*
X003387Y001780D02*
X004419Y001780D01*
X004419Y001818D02*
X003387Y001818D01*
X003387Y001856D02*
X003486Y001856D01*
X003486Y001894D02*
X003387Y001894D01*
X003387Y001932D02*
X003486Y001932D01*
X003486Y001969D02*
X003387Y001969D01*
X003387Y002007D02*
X003486Y002007D01*
X003486Y002045D02*
X003387Y002045D01*
X003387Y002083D02*
X003486Y002083D01*
X003486Y002121D02*
X003387Y002121D01*
X003387Y002159D02*
X003486Y002159D01*
X003486Y002197D02*
X003387Y002197D01*
X003387Y002235D02*
X003486Y002235D01*
X003486Y002272D02*
X003387Y002272D01*
X003387Y002310D02*
X003486Y002310D01*
X003486Y002348D02*
X003387Y002348D01*
X003387Y002386D02*
X003486Y002386D01*
X003486Y002424D02*
X003387Y002424D01*
X003387Y002462D02*
X003486Y002462D01*
X003486Y002500D02*
X003387Y002500D01*
X003387Y002537D02*
X003486Y002537D01*
X003486Y002575D02*
X003387Y002575D01*
X003387Y002613D02*
X003486Y002613D01*
X003486Y002651D02*
X003387Y002651D01*
X003387Y002689D02*
X003813Y002689D01*
X003813Y002727D02*
X003387Y002727D01*
X003994Y002727D02*
X004419Y002727D01*
X004419Y002689D02*
X003994Y002689D01*
X004320Y002651D02*
X004419Y002651D01*
X004419Y002613D02*
X004320Y002613D01*
X004320Y002575D02*
X004419Y002575D01*
X004419Y002537D02*
X004320Y002537D01*
X004320Y002500D02*
X004419Y002500D01*
X004419Y002462D02*
X004320Y002462D01*
X004320Y002424D02*
X004419Y002424D01*
X004419Y002386D02*
X004320Y002386D01*
X004320Y002348D02*
X004419Y002348D01*
X004419Y002310D02*
X004320Y002310D01*
X004320Y002272D02*
X004419Y002272D01*
X004419Y002235D02*
X004320Y002235D01*
X004320Y002197D02*
X004419Y002197D01*
X004419Y002159D02*
X004320Y002159D01*
X004320Y002121D02*
X004419Y002121D01*
X004419Y002083D02*
X004320Y002083D01*
X004320Y002045D02*
X004419Y002045D01*
X004419Y002007D02*
X004320Y002007D01*
X004320Y001969D02*
X004419Y001969D01*
X004419Y001932D02*
X004320Y001932D01*
X004320Y001894D02*
X004419Y001894D01*
X004419Y001856D02*
X004320Y001856D01*
X004226Y001925D02*
X003998Y001925D01*
X003998Y002024D01*
X004128Y002024D01*
X004128Y002465D01*
X003683Y002465D01*
X003683Y002024D01*
X003817Y002024D01*
X003817Y001925D01*
X003584Y001925D01*
X003584Y002563D01*
X004226Y002563D01*
X004226Y001925D01*
X004226Y001932D02*
X003998Y001932D01*
X003998Y001969D02*
X004226Y001969D01*
X004226Y002007D02*
X003998Y002007D01*
X004128Y002045D02*
X004226Y002045D01*
X004226Y002083D02*
X004128Y002083D01*
X004128Y002121D02*
X004226Y002121D01*
X004226Y002159D02*
X004128Y002159D01*
X004128Y002197D02*
X004226Y002197D01*
X004226Y002235D02*
X004128Y002235D01*
X004128Y002272D02*
X004226Y002272D01*
X004226Y002310D02*
X004128Y002310D01*
X004128Y002348D02*
X004226Y002348D01*
X004226Y002386D02*
X004128Y002386D01*
X004128Y002424D02*
X004226Y002424D01*
X004226Y002462D02*
X004128Y002462D01*
X004226Y002500D02*
X003584Y002500D01*
X003584Y002537D02*
X004226Y002537D01*
X003683Y002462D02*
X003584Y002462D01*
X003584Y002424D02*
X003683Y002424D01*
X003683Y002386D02*
X003584Y002386D01*
X003584Y002348D02*
X003683Y002348D01*
X003683Y002310D02*
X003584Y002310D01*
X003584Y002272D02*
X003683Y002272D01*
X003683Y002235D02*
X003584Y002235D01*
X003584Y002197D02*
X003683Y002197D01*
X003683Y002159D02*
X003584Y002159D01*
X003584Y002121D02*
X003683Y002121D01*
X003683Y002083D02*
X003584Y002083D01*
X003584Y002045D02*
X003683Y002045D01*
X003584Y002007D02*
X003817Y002007D01*
X003817Y001969D02*
X003584Y001969D01*
X003584Y001932D02*
X003817Y001932D01*
X001667Y001932D02*
X001569Y001932D01*
X001569Y001969D02*
X001667Y001969D01*
X001667Y002007D02*
X001569Y002007D01*
X001569Y002045D02*
X001667Y002045D01*
X001667Y002083D02*
X001569Y002083D01*
X001569Y002121D02*
X001667Y002121D01*
X001667Y002159D02*
X001569Y002159D01*
X001569Y002197D02*
X001667Y002197D01*
X001667Y002235D02*
X001569Y002235D01*
X001569Y002272D02*
X001667Y002272D01*
X001667Y002310D02*
X001569Y002310D01*
X001569Y002348D02*
X001667Y002348D01*
X001667Y002386D02*
X001569Y002386D01*
X001569Y002424D02*
X001667Y002424D01*
X001667Y002462D02*
X001569Y002462D01*
X001569Y002500D02*
X001667Y002500D01*
X001667Y002537D02*
X001569Y002537D01*
X001569Y002575D02*
X001667Y002575D01*
X001667Y002613D02*
X001569Y002613D01*
X001569Y002651D02*
X001667Y002651D01*
X001667Y002689D02*
X001242Y002689D01*
X001242Y002661D02*
X001242Y002760D01*
X001667Y002760D01*
X001667Y001728D01*
X000635Y001728D01*
X000635Y002760D01*
X001061Y002760D01*
X001061Y002661D01*
X000734Y002661D01*
X000734Y001827D01*
X001569Y001827D01*
X001569Y002661D01*
X001242Y002661D01*
X001061Y002689D02*
X000635Y002689D01*
X000635Y002727D02*
X001061Y002727D01*
X001242Y002727D02*
X001667Y002727D01*
X001474Y002563D02*
X000832Y002563D01*
X000832Y001925D01*
X001065Y001925D01*
X001065Y002024D01*
X000931Y002024D01*
X000931Y002465D01*
X001376Y002465D01*
X001376Y002024D01*
X001246Y002024D01*
X001246Y001925D01*
X001474Y001925D01*
X001474Y002563D01*
X001474Y002537D02*
X000832Y002537D01*
X000832Y002500D02*
X001474Y002500D01*
X001474Y002462D02*
X001376Y002462D01*
X001376Y002424D02*
X001474Y002424D01*
X001474Y002386D02*
X001376Y002386D01*
X001376Y002348D02*
X001474Y002348D01*
X001474Y002310D02*
X001376Y002310D01*
X001376Y002272D02*
X001474Y002272D01*
X001474Y002235D02*
X001376Y002235D01*
X001376Y002197D02*
X001474Y002197D01*
X001474Y002159D02*
X001376Y002159D01*
X001376Y002121D02*
X001474Y002121D01*
X001474Y002083D02*
X001376Y002083D01*
X001376Y002045D02*
X001474Y002045D01*
X001474Y002007D02*
X001246Y002007D01*
X001246Y001969D02*
X001474Y001969D01*
X001474Y001932D02*
X001246Y001932D01*
X001065Y001932D02*
X000832Y001932D01*
X000832Y001969D02*
X001065Y001969D01*
X001065Y002007D02*
X000832Y002007D01*
X000832Y002045D02*
X000931Y002045D01*
X000931Y002083D02*
X000832Y002083D01*
X000832Y002121D02*
X000931Y002121D01*
X000931Y002159D02*
X000832Y002159D01*
X000832Y002197D02*
X000931Y002197D01*
X000931Y002235D02*
X000832Y002235D01*
X000832Y002272D02*
X000931Y002272D01*
X000931Y002310D02*
X000832Y002310D01*
X000832Y002348D02*
X000931Y002348D01*
X000931Y002386D02*
X000832Y002386D01*
X000832Y002424D02*
X000931Y002424D01*
X000931Y002462D02*
X000832Y002462D01*
X000734Y002462D02*
X000635Y002462D01*
X000635Y002500D02*
X000734Y002500D01*
X000734Y002537D02*
X000635Y002537D01*
X000635Y002575D02*
X000734Y002575D01*
X000734Y002613D02*
X000635Y002613D01*
X000635Y002651D02*
X000734Y002651D01*
X000734Y002424D02*
X000635Y002424D01*
X000635Y002386D02*
X000734Y002386D01*
X000734Y002348D02*
X000635Y002348D01*
X000635Y002310D02*
X000734Y002310D01*
X000734Y002272D02*
X000635Y002272D01*
X000635Y002235D02*
X000734Y002235D01*
X000734Y002197D02*
X000635Y002197D01*
X000635Y002159D02*
X000734Y002159D01*
X000734Y002121D02*
X000635Y002121D01*
X000635Y002083D02*
X000734Y002083D01*
X000734Y002045D02*
X000635Y002045D01*
X000635Y002007D02*
X000734Y002007D01*
X000734Y001969D02*
X000635Y001969D01*
X000635Y001932D02*
X000734Y001932D01*
X000734Y001894D02*
X000635Y001894D01*
X000635Y001856D02*
X000734Y001856D01*
X000635Y001818D02*
X001667Y001818D01*
X001667Y001856D02*
X001569Y001856D01*
X001569Y001894D02*
X001667Y001894D01*
X001667Y001780D02*
X000635Y001780D01*
X000635Y001742D02*
X001667Y001742D01*
X001667Y002957D02*
X000635Y002957D01*
X000635Y002961D01*
X000635Y003988D01*
X001061Y003988D01*
X001061Y003890D01*
X000734Y003890D01*
X000734Y003055D01*
X001569Y003055D01*
X001569Y003890D01*
X001242Y003890D01*
X001242Y003988D01*
X001667Y003988D01*
X001667Y002957D01*
X001667Y002992D02*
X000635Y002992D01*
X000635Y003030D02*
X001667Y003030D01*
X001667Y003068D02*
X001569Y003068D01*
X001569Y003106D02*
X001667Y003106D01*
X001667Y003143D02*
X001569Y003143D01*
X001569Y003181D02*
X001667Y003181D01*
X001667Y003219D02*
X001569Y003219D01*
X001569Y003257D02*
X001667Y003257D01*
X001667Y003295D02*
X001569Y003295D01*
X001569Y003333D02*
X001667Y003333D01*
X001667Y003371D02*
X001569Y003371D01*
X001569Y003409D02*
X001667Y003409D01*
X001667Y003446D02*
X001569Y003446D01*
X001569Y003484D02*
X001667Y003484D01*
X001667Y003522D02*
X001569Y003522D01*
X001569Y003560D02*
X001667Y003560D01*
X001667Y003598D02*
X001569Y003598D01*
X001569Y003636D02*
X001667Y003636D01*
X001667Y003674D02*
X001569Y003674D01*
X001569Y003711D02*
X001667Y003711D01*
X001667Y003749D02*
X001569Y003749D01*
X001569Y003787D02*
X001667Y003787D01*
X001667Y003825D02*
X001569Y003825D01*
X001569Y003863D02*
X001667Y003863D01*
X001667Y003901D02*
X001242Y003901D01*
X001242Y003939D02*
X001667Y003939D01*
X001667Y003977D02*
X001242Y003977D01*
X001061Y003977D02*
X000635Y003977D01*
X000635Y003939D02*
X001061Y003939D01*
X001061Y003901D02*
X000635Y003901D01*
X000635Y003863D02*
X000734Y003863D01*
X000734Y003825D02*
X000635Y003825D01*
X000635Y003787D02*
X000734Y003787D01*
X000734Y003749D02*
X000635Y003749D01*
X000635Y003711D02*
X000734Y003711D01*
X000734Y003674D02*
X000635Y003674D01*
X000635Y003636D02*
X000734Y003636D01*
X000734Y003598D02*
X000635Y003598D01*
X000635Y003560D02*
X000734Y003560D01*
X000734Y003522D02*
X000635Y003522D01*
X000635Y003484D02*
X000734Y003484D01*
X000734Y003446D02*
X000635Y003446D01*
X000635Y003409D02*
X000734Y003409D01*
X000734Y003371D02*
X000635Y003371D01*
X000635Y003333D02*
X000734Y003333D01*
X000734Y003295D02*
X000635Y003295D01*
X000635Y003257D02*
X000734Y003257D01*
X000734Y003219D02*
X000635Y003219D01*
X000635Y003181D02*
X000734Y003181D01*
X000734Y003143D02*
X000635Y003143D01*
X000635Y003106D02*
X000734Y003106D01*
X000734Y003068D02*
X000635Y003068D01*
X000832Y003154D02*
X001061Y003154D01*
X001061Y003252D01*
X000931Y003252D01*
X000931Y003693D01*
X001376Y003693D01*
X001376Y003252D01*
X001246Y003252D01*
X001246Y003154D01*
X001474Y003154D01*
X001474Y003791D01*
X000832Y003791D01*
X000832Y003154D01*
X000832Y003181D02*
X001061Y003181D01*
X001061Y003219D02*
X000832Y003219D01*
X000832Y003257D02*
X000931Y003257D01*
X000931Y003295D02*
X000832Y003295D01*
X000832Y003333D02*
X000931Y003333D01*
X000931Y003371D02*
X000832Y003371D01*
X000832Y003409D02*
X000931Y003409D01*
X000931Y003446D02*
X000832Y003446D01*
X000832Y003484D02*
X000931Y003484D01*
X000931Y003522D02*
X000832Y003522D01*
X000832Y003560D02*
X000931Y003560D01*
X000931Y003598D02*
X000832Y003598D01*
X000832Y003636D02*
X000931Y003636D01*
X000931Y003674D02*
X000832Y003674D01*
X000832Y003711D02*
X001474Y003711D01*
X001474Y003674D02*
X001376Y003674D01*
X001376Y003636D02*
X001474Y003636D01*
X001474Y003598D02*
X001376Y003598D01*
X001376Y003560D02*
X001474Y003560D01*
X001474Y003522D02*
X001376Y003522D01*
X001376Y003484D02*
X001474Y003484D01*
X001474Y003446D02*
X001376Y003446D01*
X001376Y003409D02*
X001474Y003409D01*
X001474Y003371D02*
X001376Y003371D01*
X001376Y003333D02*
X001474Y003333D01*
X001474Y003295D02*
X001376Y003295D01*
X001376Y003257D02*
X001474Y003257D01*
X001474Y003219D02*
X001246Y003219D01*
X001246Y003181D02*
X001474Y003181D01*
X003391Y003181D02*
X003490Y003181D01*
X003490Y003143D02*
X003391Y003143D01*
X003391Y003106D02*
X003490Y003106D01*
X003490Y003068D02*
X003391Y003068D01*
X003391Y003030D02*
X004423Y003030D01*
X004423Y003068D02*
X004324Y003068D01*
X004324Y003055D02*
X003490Y003055D01*
X003490Y003890D01*
X003817Y003890D01*
X003817Y003988D01*
X003391Y003988D01*
X003391Y002957D01*
X004423Y002957D01*
X004423Y003988D01*
X003998Y003988D01*
X003998Y003890D01*
X004324Y003890D01*
X004324Y003055D01*
X004423Y002992D02*
X003391Y002992D01*
X004324Y003106D02*
X004423Y003106D01*
X004423Y003143D02*
X004324Y003143D01*
X004324Y003181D02*
X004423Y003181D01*
X004423Y003219D02*
X004324Y003219D01*
X004324Y003257D02*
X004423Y003257D01*
X004423Y003295D02*
X004324Y003295D01*
X004324Y003333D02*
X004423Y003333D01*
X004423Y003371D02*
X004324Y003371D01*
X004324Y003409D02*
X004423Y003409D01*
X004423Y003446D02*
X004324Y003446D01*
X004324Y003484D02*
X004423Y003484D01*
X004423Y003522D02*
X004324Y003522D01*
X004324Y003560D02*
X004423Y003560D01*
X004423Y003598D02*
X004324Y003598D01*
X004324Y003636D02*
X004423Y003636D01*
X004423Y003674D02*
X004324Y003674D01*
X004324Y003711D02*
X004423Y003711D01*
X004423Y003749D02*
X004324Y003749D01*
X004324Y003787D02*
X004423Y003787D01*
X004423Y003825D02*
X004324Y003825D01*
X004324Y003863D02*
X004423Y003863D01*
X004423Y003901D02*
X003998Y003901D01*
X003998Y003939D02*
X004423Y003939D01*
X004423Y003977D02*
X003998Y003977D01*
X003817Y003977D02*
X003391Y003977D01*
X003391Y003939D02*
X003817Y003939D01*
X003817Y003901D02*
X003391Y003901D01*
X003391Y003863D02*
X003490Y003863D01*
X003490Y003825D02*
X003391Y003825D01*
X003391Y003787D02*
X003490Y003787D01*
X003490Y003749D02*
X003391Y003749D01*
X003391Y003711D02*
X003490Y003711D01*
X003490Y003674D02*
X003391Y003674D01*
X003391Y003636D02*
X003490Y003636D01*
X003490Y003598D02*
X003391Y003598D01*
X003391Y003560D02*
X003490Y003560D01*
X003490Y003522D02*
X003391Y003522D01*
X003391Y003484D02*
X003490Y003484D01*
X003490Y003446D02*
X003391Y003446D01*
X003391Y003409D02*
X003490Y003409D01*
X003490Y003371D02*
X003391Y003371D01*
X003391Y003333D02*
X003490Y003333D01*
X003490Y003295D02*
X003391Y003295D01*
X003391Y003257D02*
X003490Y003257D01*
X003490Y003219D02*
X003391Y003219D01*
X003588Y003219D02*
X003820Y003219D01*
X003820Y003252D02*
X003687Y003252D01*
X003687Y003693D01*
X004131Y003693D01*
X004131Y003252D01*
X004002Y003252D01*
X004002Y003154D01*
X004230Y003154D01*
X004230Y003791D01*
X003588Y003791D01*
X003588Y003154D01*
X003820Y003154D01*
X003820Y003252D01*
X003687Y003257D02*
X003588Y003257D01*
X003588Y003295D02*
X003687Y003295D01*
X003687Y003333D02*
X003588Y003333D01*
X003588Y003371D02*
X003687Y003371D01*
X003687Y003409D02*
X003588Y003409D01*
X003588Y003446D02*
X003687Y003446D01*
X003687Y003484D02*
X003588Y003484D01*
X003588Y003522D02*
X003687Y003522D01*
X003687Y003560D02*
X003588Y003560D01*
X003588Y003598D02*
X003687Y003598D01*
X003687Y003636D02*
X003588Y003636D01*
X003588Y003674D02*
X003687Y003674D01*
X003588Y003711D02*
X004230Y003711D01*
X004230Y003674D02*
X004131Y003674D01*
X004131Y003636D02*
X004230Y003636D01*
X004230Y003598D02*
X004131Y003598D01*
X004131Y003560D02*
X004230Y003560D01*
X004230Y003522D02*
X004131Y003522D01*
X004131Y003484D02*
X004230Y003484D01*
X004230Y003446D02*
X004131Y003446D01*
X004131Y003409D02*
X004230Y003409D01*
X004230Y003371D02*
X004131Y003371D01*
X004131Y003333D02*
X004230Y003333D01*
X004230Y003295D02*
X004131Y003295D01*
X004131Y003257D02*
X004230Y003257D01*
X004230Y003219D02*
X004002Y003219D01*
X004002Y003181D02*
X004230Y003181D01*
X003820Y003181D02*
X003588Y003181D01*
X006143Y003181D02*
X006242Y003181D01*
X006242Y003143D02*
X006143Y003143D01*
X006143Y003106D02*
X006242Y003106D01*
X006242Y003068D02*
X006143Y003068D01*
X006143Y003030D02*
X007175Y003030D01*
X007175Y003068D02*
X007076Y003068D01*
X007076Y003055D02*
X006242Y003055D01*
X006242Y003890D01*
X006569Y003890D01*
X006569Y003988D01*
X006143Y003988D01*
X006143Y002957D01*
X007175Y002957D01*
X007175Y003988D01*
X006750Y003988D01*
X006750Y003890D01*
X007076Y003890D01*
X007076Y003055D01*
X007175Y002992D02*
X006143Y002992D01*
X006340Y003154D02*
X006340Y003791D01*
X006982Y003791D01*
X006982Y003154D01*
X006750Y003154D01*
X006750Y003252D01*
X006883Y003252D01*
X006883Y003693D01*
X006439Y003693D01*
X006439Y003252D01*
X006572Y003252D01*
X006572Y003154D01*
X006340Y003154D01*
X006340Y003181D02*
X006572Y003181D01*
X006572Y003219D02*
X006340Y003219D01*
X006340Y003257D02*
X006439Y003257D01*
X006439Y003295D02*
X006340Y003295D01*
X006340Y003333D02*
X006439Y003333D01*
X006439Y003371D02*
X006340Y003371D01*
X006340Y003409D02*
X006439Y003409D01*
X006439Y003446D02*
X006340Y003446D01*
X006340Y003484D02*
X006439Y003484D01*
X006439Y003522D02*
X006340Y003522D01*
X006340Y003560D02*
X006439Y003560D01*
X006439Y003598D02*
X006340Y003598D01*
X006340Y003636D02*
X006439Y003636D01*
X006439Y003674D02*
X006340Y003674D01*
X006340Y003711D02*
X006982Y003711D01*
X006982Y003674D02*
X006883Y003674D01*
X006883Y003636D02*
X006982Y003636D01*
X006982Y003598D02*
X006883Y003598D01*
X006883Y003560D02*
X006982Y003560D01*
X006982Y003522D02*
X006883Y003522D01*
X006883Y003484D02*
X006982Y003484D01*
X006982Y003446D02*
X006883Y003446D01*
X006883Y003409D02*
X006982Y003409D01*
X006982Y003371D02*
X006883Y003371D01*
X006883Y003333D02*
X006982Y003333D01*
X006982Y003295D02*
X006883Y003295D01*
X006883Y003257D02*
X006982Y003257D01*
X006982Y003219D02*
X006750Y003219D01*
X006750Y003181D02*
X006982Y003181D01*
X007076Y003181D02*
X007175Y003181D01*
X007175Y003143D02*
X007076Y003143D01*
X007076Y003106D02*
X007175Y003106D01*
X007175Y003219D02*
X007076Y003219D01*
X007076Y003257D02*
X007175Y003257D01*
X007175Y003295D02*
X007076Y003295D01*
X007076Y003333D02*
X007175Y003333D01*
X007175Y003371D02*
X007076Y003371D01*
X007076Y003409D02*
X007175Y003409D01*
X007175Y003446D02*
X007076Y003446D01*
X007076Y003484D02*
X007175Y003484D01*
X007175Y003522D02*
X007076Y003522D01*
X007076Y003560D02*
X007175Y003560D01*
X007175Y003598D02*
X007076Y003598D01*
X007076Y003636D02*
X007175Y003636D01*
X007175Y003674D02*
X007076Y003674D01*
X007076Y003711D02*
X007175Y003711D01*
X007175Y003749D02*
X007076Y003749D01*
X007076Y003787D02*
X007175Y003787D01*
X007175Y003825D02*
X007076Y003825D01*
X007076Y003863D02*
X007175Y003863D01*
X007175Y003901D02*
X006750Y003901D01*
X006750Y003939D02*
X007175Y003939D01*
X007175Y003977D02*
X006750Y003977D01*
X006569Y003977D02*
X006143Y003977D01*
X006143Y003939D02*
X006569Y003939D01*
X006569Y003901D02*
X006143Y003901D01*
X006143Y003863D02*
X006242Y003863D01*
X006242Y003825D02*
X006143Y003825D01*
X006143Y003787D02*
X006242Y003787D01*
X006242Y003749D02*
X006143Y003749D01*
X006143Y003711D02*
X006242Y003711D01*
X006242Y003674D02*
X006143Y003674D01*
X006143Y003636D02*
X006242Y003636D01*
X006242Y003598D02*
X006143Y003598D01*
X006143Y003560D02*
X006242Y003560D01*
X006242Y003522D02*
X006143Y003522D01*
X006143Y003484D02*
X006242Y003484D01*
X006242Y003446D02*
X006143Y003446D01*
X006143Y003409D02*
X006242Y003409D01*
X006242Y003371D02*
X006143Y003371D01*
X006143Y003333D02*
X006242Y003333D01*
X006242Y003295D02*
X006143Y003295D01*
X006143Y003257D02*
X006242Y003257D01*
X006242Y003219D02*
X006143Y003219D01*
X008903Y003219D02*
X009002Y003219D01*
X009002Y003181D02*
X008903Y003181D01*
X008903Y003143D02*
X009002Y003143D01*
X009002Y003106D02*
X008903Y003106D01*
X008903Y003068D02*
X009002Y003068D01*
X009002Y003055D02*
X009002Y003890D01*
X009328Y003890D01*
X009328Y003988D01*
X008903Y003988D01*
X008903Y002957D01*
X009935Y002957D01*
X009935Y003988D01*
X009509Y003988D01*
X009509Y003890D01*
X009836Y003890D01*
X009836Y003055D01*
X009002Y003055D01*
X008903Y003030D02*
X009935Y003030D01*
X009935Y003068D02*
X009836Y003068D01*
X009836Y003106D02*
X009935Y003106D01*
X009935Y003143D02*
X009836Y003143D01*
X009836Y003181D02*
X009935Y003181D01*
X009935Y003219D02*
X009836Y003219D01*
X009836Y003257D02*
X009935Y003257D01*
X009935Y003295D02*
X009836Y003295D01*
X009836Y003333D02*
X009935Y003333D01*
X009935Y003371D02*
X009836Y003371D01*
X009836Y003409D02*
X009935Y003409D01*
X009935Y003446D02*
X009836Y003446D01*
X009836Y003484D02*
X009935Y003484D01*
X009935Y003522D02*
X009836Y003522D01*
X009836Y003560D02*
X009935Y003560D01*
X009935Y003598D02*
X009836Y003598D01*
X009836Y003636D02*
X009935Y003636D01*
X009935Y003674D02*
X009836Y003674D01*
X009836Y003711D02*
X009935Y003711D01*
X009935Y003749D02*
X009836Y003749D01*
X009836Y003787D02*
X009935Y003787D01*
X009935Y003825D02*
X009836Y003825D01*
X009836Y003863D02*
X009935Y003863D01*
X009935Y003901D02*
X009509Y003901D01*
X009509Y003939D02*
X009935Y003939D01*
X009935Y003977D02*
X009509Y003977D01*
X009328Y003977D02*
X008903Y003977D01*
X008903Y003939D02*
X009328Y003939D01*
X009328Y003901D02*
X008903Y003901D01*
X008903Y003863D02*
X009002Y003863D01*
X009002Y003825D02*
X008903Y003825D01*
X008903Y003787D02*
X009002Y003787D01*
X009002Y003749D02*
X008903Y003749D01*
X008903Y003711D02*
X009002Y003711D01*
X009002Y003674D02*
X008903Y003674D01*
X008903Y003636D02*
X009002Y003636D01*
X009002Y003598D02*
X008903Y003598D01*
X008903Y003560D02*
X009002Y003560D01*
X009002Y003522D02*
X008903Y003522D01*
X008903Y003484D02*
X009002Y003484D01*
X009002Y003446D02*
X008903Y003446D01*
X008903Y003409D02*
X009002Y003409D01*
X009002Y003371D02*
X008903Y003371D01*
X008903Y003333D02*
X009002Y003333D01*
X009002Y003295D02*
X008903Y003295D01*
X008903Y003257D02*
X009002Y003257D01*
X009100Y003257D02*
X009198Y003257D01*
X009198Y003252D02*
X009198Y003693D01*
X009643Y003693D01*
X009643Y003252D01*
X009509Y003252D01*
X009509Y003154D01*
X009742Y003154D01*
X009742Y003791D01*
X009100Y003791D01*
X009100Y003154D01*
X009332Y003154D01*
X009332Y003252D01*
X009198Y003252D01*
X009198Y003295D02*
X009100Y003295D01*
X009100Y003333D02*
X009198Y003333D01*
X009198Y003371D02*
X009100Y003371D01*
X009100Y003409D02*
X009198Y003409D01*
X009198Y003446D02*
X009100Y003446D01*
X009100Y003484D02*
X009198Y003484D01*
X009198Y003522D02*
X009100Y003522D01*
X009100Y003560D02*
X009198Y003560D01*
X009198Y003598D02*
X009100Y003598D01*
X009100Y003636D02*
X009198Y003636D01*
X009198Y003674D02*
X009100Y003674D01*
X009100Y003711D02*
X009742Y003711D01*
X009742Y003674D02*
X009643Y003674D01*
X009643Y003636D02*
X009742Y003636D01*
X009742Y003598D02*
X009643Y003598D01*
X009643Y003560D02*
X009742Y003560D01*
X009742Y003522D02*
X009643Y003522D01*
X009643Y003484D02*
X009742Y003484D01*
X009742Y003446D02*
X009643Y003446D01*
X009643Y003409D02*
X009742Y003409D01*
X009742Y003371D02*
X009643Y003371D01*
X009643Y003333D02*
X009742Y003333D01*
X009742Y003295D02*
X009643Y003295D01*
X009643Y003257D02*
X009742Y003257D01*
X009742Y003219D02*
X009509Y003219D01*
X009509Y003181D02*
X009742Y003181D01*
X009332Y003181D02*
X009100Y003181D01*
X009100Y003219D02*
X009332Y003219D01*
X008903Y002992D02*
X009935Y002992D01*
X011659Y002992D02*
X012691Y002992D01*
X012691Y002957D02*
X012691Y003988D01*
X012265Y003988D01*
X012265Y003890D01*
X012592Y003890D01*
X012592Y003055D01*
X011757Y003055D01*
X011757Y003890D01*
X012084Y003890D01*
X012084Y003988D01*
X011659Y003988D01*
X011659Y002957D01*
X012691Y002957D01*
X012691Y003030D02*
X011659Y003030D01*
X011659Y003068D02*
X011757Y003068D01*
X011757Y003106D02*
X011659Y003106D01*
X011659Y003143D02*
X011757Y003143D01*
X011757Y003181D02*
X011659Y003181D01*
X011659Y003219D02*
X011757Y003219D01*
X011757Y003257D02*
X011659Y003257D01*
X011659Y003295D02*
X011757Y003295D01*
X011757Y003333D02*
X011659Y003333D01*
X011659Y003371D02*
X011757Y003371D01*
X011757Y003409D02*
X011659Y003409D01*
X011659Y003446D02*
X011757Y003446D01*
X011757Y003484D02*
X011659Y003484D01*
X011659Y003522D02*
X011757Y003522D01*
X011757Y003560D02*
X011659Y003560D01*
X011659Y003598D02*
X011757Y003598D01*
X011757Y003636D02*
X011659Y003636D01*
X011659Y003674D02*
X011757Y003674D01*
X011757Y003711D02*
X011659Y003711D01*
X011659Y003749D02*
X011757Y003749D01*
X011757Y003787D02*
X011659Y003787D01*
X011659Y003825D02*
X011757Y003825D01*
X011757Y003863D02*
X011659Y003863D01*
X011659Y003901D02*
X012084Y003901D01*
X012084Y003939D02*
X011659Y003939D01*
X011659Y003977D02*
X012084Y003977D01*
X012265Y003977D02*
X012691Y003977D01*
X012691Y003939D02*
X012265Y003939D01*
X012265Y003901D02*
X012691Y003901D01*
X012691Y003863D02*
X012592Y003863D01*
X012592Y003825D02*
X012691Y003825D01*
X012691Y003787D02*
X012592Y003787D01*
X012592Y003749D02*
X012691Y003749D01*
X012691Y003711D02*
X012592Y003711D01*
X012592Y003674D02*
X012691Y003674D01*
X012691Y003636D02*
X012592Y003636D01*
X012592Y003598D02*
X012691Y003598D01*
X012691Y003560D02*
X012592Y003560D01*
X012592Y003522D02*
X012691Y003522D01*
X012691Y003484D02*
X012592Y003484D01*
X012592Y003446D02*
X012691Y003446D01*
X012691Y003409D02*
X012592Y003409D01*
X012592Y003371D02*
X012691Y003371D01*
X012691Y003333D02*
X012592Y003333D01*
X012592Y003295D02*
X012691Y003295D01*
X012691Y003257D02*
X012592Y003257D01*
X012592Y003219D02*
X012691Y003219D01*
X012691Y003181D02*
X012592Y003181D01*
X012592Y003143D02*
X012691Y003143D01*
X012691Y003106D02*
X012592Y003106D01*
X012592Y003068D02*
X012691Y003068D01*
X012498Y003154D02*
X012265Y003154D01*
X012265Y003252D01*
X012399Y003252D01*
X012399Y003693D01*
X011954Y003693D01*
X011954Y003252D01*
X012088Y003252D01*
X012088Y003154D01*
X011856Y003154D01*
X011856Y003791D01*
X012498Y003791D01*
X012498Y003154D01*
X012498Y003181D02*
X012265Y003181D01*
X012265Y003219D02*
X012498Y003219D01*
X012498Y003257D02*
X012399Y003257D01*
X012399Y003295D02*
X012498Y003295D01*
X012498Y003333D02*
X012399Y003333D01*
X012399Y003371D02*
X012498Y003371D01*
X012498Y003409D02*
X012399Y003409D01*
X012399Y003446D02*
X012498Y003446D01*
X012498Y003484D02*
X012399Y003484D01*
X012399Y003522D02*
X012498Y003522D01*
X012498Y003560D02*
X012399Y003560D01*
X012399Y003598D02*
X012498Y003598D01*
X012498Y003636D02*
X012399Y003636D01*
X012399Y003674D02*
X012498Y003674D01*
X012498Y003711D02*
X011856Y003711D01*
X011856Y003674D02*
X011954Y003674D01*
X011954Y003636D02*
X011856Y003636D01*
X011856Y003598D02*
X011954Y003598D01*
X011954Y003560D02*
X011856Y003560D01*
X011856Y003522D02*
X011954Y003522D01*
X011954Y003484D02*
X011856Y003484D01*
X011856Y003446D02*
X011954Y003446D01*
X011954Y003409D02*
X011856Y003409D01*
X011856Y003371D02*
X011954Y003371D01*
X011954Y003333D02*
X011856Y003333D01*
X011856Y003295D02*
X011954Y003295D01*
X011954Y003257D02*
X011856Y003257D01*
X011856Y003219D02*
X012088Y003219D01*
X012088Y003181D02*
X011856Y003181D01*
X014415Y003181D02*
X014513Y003181D01*
X014513Y003143D02*
X014415Y003143D01*
X014415Y003106D02*
X014513Y003106D01*
X014513Y003068D02*
X014415Y003068D01*
X014415Y003030D02*
X015446Y003030D01*
X015446Y003068D02*
X015348Y003068D01*
X015348Y003055D02*
X014513Y003055D01*
X014513Y003890D01*
X014840Y003890D01*
X014840Y003988D01*
X014415Y003988D01*
X014415Y002957D01*
X015446Y002957D01*
X015446Y003988D01*
X015021Y003988D01*
X015021Y003890D01*
X015348Y003890D01*
X015348Y003055D01*
X015446Y002992D02*
X014415Y002992D01*
X015348Y003106D02*
X015446Y003106D01*
X015446Y003143D02*
X015348Y003143D01*
X015348Y003181D02*
X015446Y003181D01*
X015446Y003219D02*
X015348Y003219D01*
X015348Y003257D02*
X015446Y003257D01*
X015446Y003295D02*
X015348Y003295D01*
X015348Y003333D02*
X015446Y003333D01*
X015446Y003371D02*
X015348Y003371D01*
X015348Y003409D02*
X015446Y003409D01*
X015446Y003446D02*
X015348Y003446D01*
X015348Y003484D02*
X015446Y003484D01*
X015446Y003522D02*
X015348Y003522D01*
X015348Y003560D02*
X015446Y003560D01*
X015446Y003598D02*
X015348Y003598D01*
X015348Y003636D02*
X015446Y003636D01*
X015446Y003674D02*
X015348Y003674D01*
X015348Y003711D02*
X015446Y003711D01*
X015446Y003749D02*
X015348Y003749D01*
X015348Y003787D02*
X015446Y003787D01*
X015446Y003825D02*
X015348Y003825D01*
X015348Y003863D02*
X015446Y003863D01*
X015446Y003901D02*
X015021Y003901D01*
X015021Y003939D02*
X015446Y003939D01*
X015446Y003977D02*
X015021Y003977D01*
X014840Y003977D02*
X014415Y003977D01*
X014415Y003939D02*
X014840Y003939D01*
X014840Y003901D02*
X014415Y003901D01*
X014415Y003863D02*
X014513Y003863D01*
X014513Y003825D02*
X014415Y003825D01*
X014415Y003787D02*
X014513Y003787D01*
X014513Y003749D02*
X014415Y003749D01*
X014415Y003711D02*
X014513Y003711D01*
X014513Y003674D02*
X014415Y003674D01*
X014415Y003636D02*
X014513Y003636D01*
X014513Y003598D02*
X014415Y003598D01*
X014415Y003560D02*
X014513Y003560D01*
X014513Y003522D02*
X014415Y003522D01*
X014415Y003484D02*
X014513Y003484D01*
X014513Y003446D02*
X014415Y003446D01*
X014415Y003409D02*
X014513Y003409D01*
X014513Y003371D02*
X014415Y003371D01*
X014415Y003333D02*
X014513Y003333D01*
X014513Y003295D02*
X014415Y003295D01*
X014415Y003257D02*
X014513Y003257D01*
X014513Y003219D02*
X014415Y003219D01*
X014612Y003219D02*
X014844Y003219D01*
X014844Y003252D02*
X014844Y003154D01*
X014612Y003154D01*
X014612Y003791D01*
X015254Y003791D01*
X015254Y003154D01*
X015021Y003154D01*
X015021Y003252D01*
X015155Y003252D01*
X015155Y003693D01*
X014710Y003693D01*
X014710Y003252D01*
X014844Y003252D01*
X014710Y003257D02*
X014612Y003257D01*
X014612Y003295D02*
X014710Y003295D01*
X014710Y003333D02*
X014612Y003333D01*
X014612Y003371D02*
X014710Y003371D01*
X014710Y003409D02*
X014612Y003409D01*
X014612Y003446D02*
X014710Y003446D01*
X014710Y003484D02*
X014612Y003484D01*
X014612Y003522D02*
X014710Y003522D01*
X014710Y003560D02*
X014612Y003560D01*
X014612Y003598D02*
X014710Y003598D01*
X014710Y003636D02*
X014612Y003636D01*
X014612Y003674D02*
X014710Y003674D01*
X014612Y003711D02*
X015254Y003711D01*
X015254Y003674D02*
X015155Y003674D01*
X015155Y003636D02*
X015254Y003636D01*
X015254Y003598D02*
X015155Y003598D01*
X015155Y003560D02*
X015254Y003560D01*
X015254Y003522D02*
X015155Y003522D01*
X015155Y003484D02*
X015254Y003484D01*
X015254Y003446D02*
X015155Y003446D01*
X015155Y003409D02*
X015254Y003409D01*
X015254Y003371D02*
X015155Y003371D01*
X015155Y003333D02*
X015254Y003333D01*
X015254Y003295D02*
X015155Y003295D01*
X015155Y003257D02*
X015254Y003257D01*
X015254Y003219D02*
X015021Y003219D01*
X015021Y003181D02*
X015254Y003181D01*
X014844Y003181D02*
X014612Y003181D01*
X017171Y003181D02*
X017269Y003181D01*
X017269Y003143D02*
X017171Y003143D01*
X017171Y003106D02*
X017269Y003106D01*
X017269Y003068D02*
X017171Y003068D01*
X017171Y003030D02*
X018202Y003030D01*
X018202Y003068D02*
X018104Y003068D01*
X018104Y003055D02*
X017269Y003055D01*
X017269Y003890D01*
X017596Y003890D01*
X017596Y003988D01*
X017171Y003988D01*
X017171Y002957D01*
X018202Y002957D01*
X018202Y003988D01*
X017777Y003988D01*
X017777Y003890D01*
X018104Y003890D01*
X018104Y003055D01*
X018202Y002992D02*
X017171Y002992D01*
X018104Y003106D02*
X018202Y003106D01*
X018202Y003143D02*
X018104Y003143D01*
X018104Y003181D02*
X018202Y003181D01*
X018202Y003219D02*
X018104Y003219D01*
X018104Y003257D02*
X018202Y003257D01*
X018202Y003295D02*
X018104Y003295D01*
X018104Y003333D02*
X018202Y003333D01*
X018202Y003371D02*
X018104Y003371D01*
X018104Y003409D02*
X018202Y003409D01*
X018202Y003446D02*
X018104Y003446D01*
X018104Y003484D02*
X018202Y003484D01*
X018202Y003522D02*
X018104Y003522D01*
X018104Y003560D02*
X018202Y003560D01*
X018202Y003598D02*
X018104Y003598D01*
X018104Y003636D02*
X018202Y003636D01*
X018202Y003674D02*
X018104Y003674D01*
X018104Y003711D02*
X018202Y003711D01*
X018202Y003749D02*
X018104Y003749D01*
X018104Y003787D02*
X018202Y003787D01*
X018202Y003825D02*
X018104Y003825D01*
X018104Y003863D02*
X018202Y003863D01*
X018202Y003901D02*
X017777Y003901D01*
X017777Y003939D02*
X018202Y003939D01*
X018202Y003977D02*
X017777Y003977D01*
X017596Y003977D02*
X017171Y003977D01*
X017171Y003939D02*
X017596Y003939D01*
X017596Y003901D02*
X017171Y003901D01*
X017171Y003863D02*
X017269Y003863D01*
X017269Y003825D02*
X017171Y003825D01*
X017171Y003787D02*
X017269Y003787D01*
X017269Y003749D02*
X017171Y003749D01*
X017171Y003711D02*
X017269Y003711D01*
X017269Y003674D02*
X017171Y003674D01*
X017171Y003636D02*
X017269Y003636D01*
X017269Y003598D02*
X017171Y003598D01*
X017171Y003560D02*
X017269Y003560D01*
X017269Y003522D02*
X017171Y003522D01*
X017171Y003484D02*
X017269Y003484D01*
X017269Y003446D02*
X017171Y003446D01*
X017171Y003409D02*
X017269Y003409D01*
X017269Y003371D02*
X017171Y003371D01*
X017171Y003333D02*
X017269Y003333D01*
X017269Y003295D02*
X017171Y003295D01*
X017171Y003257D02*
X017269Y003257D01*
X017269Y003219D02*
X017171Y003219D01*
X017368Y003219D02*
X017600Y003219D01*
X017600Y003252D02*
X017600Y003154D01*
X017368Y003154D01*
X017368Y003791D01*
X018009Y003791D01*
X018009Y003154D01*
X017777Y003154D01*
X017777Y003252D01*
X017911Y003252D01*
X017911Y003693D01*
X017466Y003693D01*
X017466Y003252D01*
X017600Y003252D01*
X017466Y003257D02*
X017368Y003257D01*
X017368Y003295D02*
X017466Y003295D01*
X017466Y003333D02*
X017368Y003333D01*
X017368Y003371D02*
X017466Y003371D01*
X017466Y003409D02*
X017368Y003409D01*
X017368Y003446D02*
X017466Y003446D01*
X017466Y003484D02*
X017368Y003484D01*
X017368Y003522D02*
X017466Y003522D01*
X017466Y003560D02*
X017368Y003560D01*
X017368Y003598D02*
X017466Y003598D01*
X017466Y003636D02*
X017368Y003636D01*
X017368Y003674D02*
X017466Y003674D01*
X017368Y003711D02*
X018009Y003711D01*
X018009Y003674D02*
X017911Y003674D01*
X017911Y003636D02*
X018009Y003636D01*
X018009Y003598D02*
X017911Y003598D01*
X017911Y003560D02*
X018009Y003560D01*
X018009Y003522D02*
X017911Y003522D01*
X017911Y003484D02*
X018009Y003484D01*
X018009Y003446D02*
X017911Y003446D01*
X017911Y003409D02*
X018009Y003409D01*
X018009Y003371D02*
X017911Y003371D01*
X017911Y003333D02*
X018009Y003333D01*
X018009Y003295D02*
X017911Y003295D01*
X017911Y003257D02*
X018009Y003257D01*
X018009Y003219D02*
X017777Y003219D01*
X017777Y003181D02*
X018009Y003181D01*
X017600Y003181D02*
X017368Y003181D01*
X019927Y003181D02*
X020025Y003181D01*
X020025Y003143D02*
X019927Y003143D01*
X019927Y003106D02*
X020025Y003106D01*
X020025Y003068D02*
X019927Y003068D01*
X019927Y003030D02*
X020958Y003030D01*
X020958Y003068D02*
X020860Y003068D01*
X020860Y003055D02*
X020025Y003055D01*
X020025Y003890D01*
X020352Y003890D01*
X020352Y003988D01*
X019927Y003988D01*
X019927Y002957D01*
X020958Y002957D01*
X020958Y003988D01*
X020533Y003988D01*
X020533Y003890D01*
X020860Y003890D01*
X020860Y003055D01*
X020958Y002992D02*
X019927Y002992D01*
X020124Y003154D02*
X020124Y003791D01*
X020765Y003791D01*
X020765Y003154D01*
X020533Y003154D01*
X020533Y003252D01*
X020667Y003252D01*
X020667Y003693D01*
X020222Y003693D01*
X020222Y003252D01*
X020356Y003252D01*
X020356Y003154D01*
X020124Y003154D01*
X020124Y003181D02*
X020356Y003181D01*
X020356Y003219D02*
X020124Y003219D01*
X020124Y003257D02*
X020222Y003257D01*
X020222Y003295D02*
X020124Y003295D01*
X020124Y003333D02*
X020222Y003333D01*
X020222Y003371D02*
X020124Y003371D01*
X020124Y003409D02*
X020222Y003409D01*
X020222Y003446D02*
X020124Y003446D01*
X020124Y003484D02*
X020222Y003484D01*
X020222Y003522D02*
X020124Y003522D01*
X020124Y003560D02*
X020222Y003560D01*
X020222Y003598D02*
X020124Y003598D01*
X020124Y003636D02*
X020222Y003636D01*
X020222Y003674D02*
X020124Y003674D01*
X020124Y003711D02*
X020765Y003711D01*
X020765Y003674D02*
X020667Y003674D01*
X020667Y003636D02*
X020765Y003636D01*
X020765Y003598D02*
X020667Y003598D01*
X020667Y003560D02*
X020765Y003560D01*
X020765Y003522D02*
X020667Y003522D01*
X020667Y003484D02*
X020765Y003484D01*
X020765Y003446D02*
X020667Y003446D01*
X020667Y003409D02*
X020765Y003409D01*
X020765Y003371D02*
X020667Y003371D01*
X020667Y003333D02*
X020765Y003333D01*
X020765Y003295D02*
X020667Y003295D01*
X020667Y003257D02*
X020765Y003257D01*
X020765Y003219D02*
X020533Y003219D01*
X020533Y003181D02*
X020765Y003181D01*
X020860Y003181D02*
X020958Y003181D01*
X020958Y003143D02*
X020860Y003143D01*
X020860Y003106D02*
X020958Y003106D01*
X020958Y003219D02*
X020860Y003219D01*
X020860Y003257D02*
X020958Y003257D01*
X020958Y003295D02*
X020860Y003295D01*
X020860Y003333D02*
X020958Y003333D01*
X020958Y003371D02*
X020860Y003371D01*
X020860Y003409D02*
X020958Y003409D01*
X020958Y003446D02*
X020860Y003446D01*
X020860Y003484D02*
X020958Y003484D01*
X020958Y003522D02*
X020860Y003522D01*
X020860Y003560D02*
X020958Y003560D01*
X020958Y003598D02*
X020860Y003598D01*
X020860Y003636D02*
X020958Y003636D01*
X020958Y003674D02*
X020860Y003674D01*
X020860Y003711D02*
X020958Y003711D01*
X020958Y003749D02*
X020860Y003749D01*
X020860Y003787D02*
X020958Y003787D01*
X020958Y003825D02*
X020860Y003825D01*
X020860Y003863D02*
X020958Y003863D01*
X020958Y003901D02*
X020533Y003901D01*
X020533Y003939D02*
X020958Y003939D01*
X020958Y003977D02*
X020533Y003977D01*
X020352Y003977D02*
X019927Y003977D01*
X019927Y003939D02*
X020352Y003939D01*
X020352Y003901D02*
X019927Y003901D01*
X019927Y003863D02*
X020025Y003863D01*
X020025Y003825D02*
X019927Y003825D01*
X019927Y003787D02*
X020025Y003787D01*
X020025Y003749D02*
X019927Y003749D01*
X019927Y003711D02*
X020025Y003711D01*
X020025Y003674D02*
X019927Y003674D01*
X019927Y003636D02*
X020025Y003636D01*
X020025Y003598D02*
X019927Y003598D01*
X019927Y003560D02*
X020025Y003560D01*
X020025Y003522D02*
X019927Y003522D01*
X019927Y003484D02*
X020025Y003484D01*
X020025Y003446D02*
X019927Y003446D01*
X019927Y003409D02*
X020025Y003409D01*
X020025Y003371D02*
X019927Y003371D01*
X019927Y003333D02*
X020025Y003333D01*
X020025Y003295D02*
X019927Y003295D01*
X019927Y003257D02*
X020025Y003257D01*
X020025Y003219D02*
X019927Y003219D01*
X022683Y003219D02*
X022781Y003219D01*
X022781Y003181D02*
X022683Y003181D01*
X022683Y003143D02*
X022781Y003143D01*
X022781Y003106D02*
X022683Y003106D01*
X022683Y003068D02*
X022781Y003068D01*
X022781Y003055D02*
X022781Y003890D01*
X023108Y003890D01*
X023108Y003988D01*
X022683Y003988D01*
X022683Y002957D01*
X023714Y002957D01*
X023714Y003988D01*
X023289Y003988D01*
X023289Y003890D01*
X023616Y003890D01*
X023616Y003055D01*
X022781Y003055D01*
X022683Y003030D02*
X023714Y003030D01*
X023714Y003068D02*
X023616Y003068D01*
X023616Y003106D02*
X023714Y003106D01*
X023714Y003143D02*
X023616Y003143D01*
X023616Y003181D02*
X023714Y003181D01*
X023714Y003219D02*
X023616Y003219D01*
X023616Y003257D02*
X023714Y003257D01*
X023714Y003295D02*
X023616Y003295D01*
X023616Y003333D02*
X023714Y003333D01*
X023714Y003371D02*
X023616Y003371D01*
X023616Y003409D02*
X023714Y003409D01*
X023714Y003446D02*
X023616Y003446D01*
X023616Y003484D02*
X023714Y003484D01*
X023714Y003522D02*
X023616Y003522D01*
X023616Y003560D02*
X023714Y003560D01*
X023714Y003598D02*
X023616Y003598D01*
X023616Y003636D02*
X023714Y003636D01*
X023714Y003674D02*
X023616Y003674D01*
X023616Y003711D02*
X023714Y003711D01*
X023714Y003749D02*
X023616Y003749D01*
X023616Y003787D02*
X023714Y003787D01*
X023714Y003825D02*
X023616Y003825D01*
X023616Y003863D02*
X023714Y003863D01*
X023714Y003901D02*
X023289Y003901D01*
X023289Y003939D02*
X023714Y003939D01*
X023714Y003977D02*
X023289Y003977D01*
X023108Y003977D02*
X022683Y003977D01*
X022683Y003939D02*
X023108Y003939D01*
X023108Y003901D02*
X022683Y003901D01*
X022683Y003863D02*
X022781Y003863D01*
X022781Y003825D02*
X022683Y003825D01*
X022683Y003787D02*
X022781Y003787D01*
X022781Y003749D02*
X022683Y003749D01*
X022683Y003711D02*
X022781Y003711D01*
X022781Y003674D02*
X022683Y003674D01*
X022683Y003636D02*
X022781Y003636D01*
X022781Y003598D02*
X022683Y003598D01*
X022683Y003560D02*
X022781Y003560D01*
X022781Y003522D02*
X022683Y003522D01*
X022683Y003484D02*
X022781Y003484D01*
X022781Y003446D02*
X022683Y003446D01*
X022683Y003409D02*
X022781Y003409D01*
X022781Y003371D02*
X022683Y003371D01*
X022683Y003333D02*
X022781Y003333D01*
X022781Y003295D02*
X022683Y003295D01*
X022683Y003257D02*
X022781Y003257D01*
X022880Y003257D02*
X022978Y003257D01*
X022978Y003252D02*
X022978Y003693D01*
X023423Y003693D01*
X023423Y003252D01*
X023289Y003252D01*
X023289Y003154D01*
X023521Y003154D01*
X023521Y003791D01*
X022880Y003791D01*
X022880Y003154D01*
X023112Y003154D01*
X023112Y003252D01*
X022978Y003252D01*
X022978Y003295D02*
X022880Y003295D01*
X022880Y003333D02*
X022978Y003333D01*
X022978Y003371D02*
X022880Y003371D01*
X022880Y003409D02*
X022978Y003409D01*
X022978Y003446D02*
X022880Y003446D01*
X022880Y003484D02*
X022978Y003484D01*
X022978Y003522D02*
X022880Y003522D01*
X022880Y003560D02*
X022978Y003560D01*
X022978Y003598D02*
X022880Y003598D01*
X022880Y003636D02*
X022978Y003636D01*
X022978Y003674D02*
X022880Y003674D01*
X022880Y003711D02*
X023521Y003711D01*
X023521Y003674D02*
X023423Y003674D01*
X023423Y003636D02*
X023521Y003636D01*
X023521Y003598D02*
X023423Y003598D01*
X023423Y003560D02*
X023521Y003560D01*
X023521Y003522D02*
X023423Y003522D01*
X023423Y003484D02*
X023521Y003484D01*
X023521Y003446D02*
X023423Y003446D01*
X023423Y003409D02*
X023521Y003409D01*
X023521Y003371D02*
X023423Y003371D01*
X023423Y003333D02*
X023521Y003333D01*
X023521Y003295D02*
X023423Y003295D01*
X023423Y003257D02*
X023521Y003257D01*
X023521Y003219D02*
X023289Y003219D01*
X023289Y003181D02*
X023521Y003181D01*
X023112Y003181D02*
X022880Y003181D01*
X022880Y003219D02*
X023112Y003219D01*
X022683Y002992D02*
X023714Y002992D01*
X025439Y002992D02*
X026470Y002992D01*
X026470Y002957D02*
X026470Y003988D01*
X026045Y003988D01*
X026045Y003890D01*
X026372Y003890D01*
X026372Y003055D01*
X025537Y003055D01*
X025537Y003890D01*
X025864Y003890D01*
X025864Y003988D01*
X025439Y003988D01*
X025439Y002957D01*
X026470Y002957D01*
X026470Y003030D02*
X025439Y003030D01*
X025439Y003068D02*
X025537Y003068D01*
X025537Y003106D02*
X025439Y003106D01*
X025439Y003143D02*
X025537Y003143D01*
X025537Y003181D02*
X025439Y003181D01*
X025439Y003219D02*
X025537Y003219D01*
X025537Y003257D02*
X025439Y003257D01*
X025439Y003295D02*
X025537Y003295D01*
X025537Y003333D02*
X025439Y003333D01*
X025439Y003371D02*
X025537Y003371D01*
X025537Y003409D02*
X025439Y003409D01*
X025439Y003446D02*
X025537Y003446D01*
X025537Y003484D02*
X025439Y003484D01*
X025439Y003522D02*
X025537Y003522D01*
X025537Y003560D02*
X025439Y003560D01*
X025439Y003598D02*
X025537Y003598D01*
X025537Y003636D02*
X025439Y003636D01*
X025439Y003674D02*
X025537Y003674D01*
X025537Y003711D02*
X025439Y003711D01*
X025439Y003749D02*
X025537Y003749D01*
X025537Y003787D02*
X025439Y003787D01*
X025439Y003825D02*
X025537Y003825D01*
X025537Y003863D02*
X025439Y003863D01*
X025439Y003901D02*
X025864Y003901D01*
X025864Y003939D02*
X025439Y003939D01*
X025439Y003977D02*
X025864Y003977D01*
X026045Y003977D02*
X026470Y003977D01*
X026470Y003939D02*
X026045Y003939D01*
X026045Y003901D02*
X026470Y003901D01*
X026470Y003863D02*
X026372Y003863D01*
X026372Y003825D02*
X026470Y003825D01*
X026470Y003787D02*
X026372Y003787D01*
X026372Y003749D02*
X026470Y003749D01*
X026470Y003711D02*
X026372Y003711D01*
X026372Y003674D02*
X026470Y003674D01*
X026470Y003636D02*
X026372Y003636D01*
X026372Y003598D02*
X026470Y003598D01*
X026470Y003560D02*
X026372Y003560D01*
X026372Y003522D02*
X026470Y003522D01*
X026470Y003484D02*
X026372Y003484D01*
X026372Y003446D02*
X026470Y003446D01*
X026470Y003409D02*
X026372Y003409D01*
X026372Y003371D02*
X026470Y003371D01*
X026470Y003333D02*
X026372Y003333D01*
X026372Y003295D02*
X026470Y003295D01*
X026470Y003257D02*
X026372Y003257D01*
X026372Y003219D02*
X026470Y003219D01*
X026470Y003181D02*
X026372Y003181D01*
X026372Y003143D02*
X026470Y003143D01*
X026470Y003106D02*
X026372Y003106D01*
X026372Y003068D02*
X026470Y003068D01*
X026277Y003154D02*
X026045Y003154D01*
X026045Y003252D01*
X026179Y003252D01*
X026179Y003693D01*
X025734Y003693D01*
X025734Y003252D01*
X025868Y003252D01*
X025868Y003154D01*
X025635Y003154D01*
X025635Y003791D01*
X026277Y003791D01*
X026277Y003154D01*
X026277Y003181D02*
X026045Y003181D01*
X026045Y003219D02*
X026277Y003219D01*
X026277Y003257D02*
X026179Y003257D01*
X026179Y003295D02*
X026277Y003295D01*
X026277Y003333D02*
X026179Y003333D01*
X026179Y003371D02*
X026277Y003371D01*
X026277Y003409D02*
X026179Y003409D01*
X026179Y003446D02*
X026277Y003446D01*
X026277Y003484D02*
X026179Y003484D01*
X026179Y003522D02*
X026277Y003522D01*
X026277Y003560D02*
X026179Y003560D01*
X026179Y003598D02*
X026277Y003598D01*
X026277Y003636D02*
X026179Y003636D01*
X026179Y003674D02*
X026277Y003674D01*
X026277Y003711D02*
X025635Y003711D01*
X025635Y003674D02*
X025734Y003674D01*
X025734Y003636D02*
X025635Y003636D01*
X025635Y003598D02*
X025734Y003598D01*
X025734Y003560D02*
X025635Y003560D01*
X025635Y003522D02*
X025734Y003522D01*
X025734Y003484D02*
X025635Y003484D01*
X025635Y003446D02*
X025734Y003446D01*
X025734Y003409D02*
X025635Y003409D01*
X025635Y003371D02*
X025734Y003371D01*
X025734Y003333D02*
X025635Y003333D01*
X025635Y003295D02*
X025734Y003295D01*
X025734Y003257D02*
X025635Y003257D01*
X025635Y003219D02*
X025868Y003219D01*
X025868Y003181D02*
X025635Y003181D01*
X025635Y003749D02*
X026277Y003749D01*
X026277Y003787D02*
X025635Y003787D01*
X023521Y003787D02*
X022880Y003787D01*
X022880Y003749D02*
X023521Y003749D01*
X020765Y003749D02*
X020124Y003749D01*
X020124Y003787D02*
X020765Y003787D01*
X018009Y003787D02*
X017368Y003787D01*
X017368Y003749D02*
X018009Y003749D01*
X015254Y003749D02*
X014612Y003749D01*
X014612Y003787D02*
X015254Y003787D01*
X012498Y003787D02*
X011856Y003787D01*
X011856Y003749D02*
X012498Y003749D01*
X009742Y003749D02*
X009100Y003749D01*
X009100Y003787D02*
X009742Y003787D01*
X006982Y003787D02*
X006340Y003787D01*
X006340Y003749D02*
X006982Y003749D01*
X004230Y003749D02*
X003588Y003749D01*
X003588Y003787D02*
X004230Y003787D01*
X001474Y003787D02*
X000832Y003787D01*
X000832Y003749D02*
X001474Y003749D01*
M02*
